<?xml version="1.0" encoding="UTF-8" standalone="no"?>
<!-- Created with Inkscape (http://www.inkscape.org/) -->

<svg
   width="210mm"
   height="297mm"
   viewBox="0 0 210 297"
   version="1.1"
   id="svg1"
   xml:space="preserve"
   xmlns:xlink="http://www.w3.org/1999/xlink"
   xmlns="http://www.w3.org/2000/svg"
   xmlns:svg="http://www.w3.org/2000/svg"><defs
     id="defs1"><linearGradient
       id="linearGradient226"><stop
         style="stop-color:#ff0000;stop-opacity:0;"
         offset="0"
         id="stop225" /><stop
         style="stop-color:#990000;stop-opacity:1;"
         offset="1"
         id="stop226" /></linearGradient><linearGradient
       id="linearGradient224"><stop
         style="stop-color:#ffffff;stop-opacity:0;"
         offset="0"
         id="stop223" /><stop
         style="stop-color:#bfbfbf;stop-opacity:1;"
         offset="1"
         id="stop224" /></linearGradient><linearGradient
       id="linearGradient6"><stop
         style="stop-color:#ca0000;stop-opacity:1;"
         offset="0"
         id="stop5" /><stop
         style="stop-color:#7d0000;stop-opacity:1;"
         offset="1"
         id="stop6" /></linearGradient><linearGradient
       id="linearGradient4"><stop
         style="stop-color:#bbbbbb;stop-opacity:1;"
         offset="0"
         id="stop3" /><stop
         style="stop-color:#717171;stop-opacity:1;"
         offset="1"
         id="stop4" /></linearGradient><linearGradient
       id="linearGradient2"><stop
         style="stop-color:#ffffff;stop-opacity:0;"
         offset="0"
         id="stop1" /><stop
         style="stop-color:#bfbfbf;stop-opacity:1;"
         offset="1"
         id="stop2" /></linearGradient><pattern
       xlink:href="#pattern916"
       preserveAspectRatio="xMidYMid"
       id="pattern917"
       patternTransform="rotate(45,-55.611272,467.61329)" /><pattern
       xlink:href="#pattern915"
       preserveAspectRatio="xMidYMid"
       id="pattern916"
       patternTransform="rotate(45,-55.611269,467.61329)"
       x="4"
       y="0"
       width="511.93476563" /><pattern
       patternUnits="userSpaceOnUse"
       width="426.6123"
       height="55.4942"
       patternTransform="translate(231.9442,203.8797)"
       preserveAspectRatio="xMidYMid"
       id="pattern915"
       style="fill:#ffffff"><path
         id="path914"
         style="stroke-width:0.315146;stroke-linecap:square;paint-order:markers fill stroke;stop-color:#000000"
         d="m 420.5733,0 h 0.2749 c 0.024,8.9645 5.7641,19.2925 5.7641,27.7471 0,8.4545 -5.7641,15.465 -5.7641,27.7471 h -0.2749 c 0,-12.8073 5.6908,-20.0005 5.6908,-27.7471 1e-4,-7.7466 -5.6292,-16.6995 -5.6908,-27.7471 z m -16.5687,0 h 1.0155 c 0.023,9.4488 5.2737,18.9076 5.2737,27.7471 0,8.8395 -5.2737,15.1536 -5.2737,27.7471 h -1.0155 c 0,-12.8543 5.2089,-19.5988 5.209,-27.7471 0,-8.1483 -5.1498,-16.3841 -5.209,-27.7471 z m -16.5687,0 h 1.7561 c 0.023,9.933 4.7832,18.5227 4.7832,27.7471 0,9.2244 -4.7832,14.8421 -4.7832,27.7471 h -1.7561 c 0,-12.9013 4.7271,-19.1972 4.7271,-27.7471 0,-8.55 -4.6704,-16.0687 -4.7271,-27.7471 z m -16.5687,0 h 2.4967 c 0.022,10.4173 4.2928,18.1377 4.2928,27.7471 0,9.6093 -4.2928,14.5307 -4.2928,27.7471 h -2.4967 c 0,-12.9482 4.2452,-18.7955 4.2452,-27.7471 1e-4,-8.9516 -4.191,-15.7533 -4.2452,-27.7471 z m -16.5687,0 h 3.2373 c 0.02,10.9016 3.8024,17.7528 3.8024,27.7471 0,9.9943 -3.8024,14.2192 -3.8024,27.7471 h -3.2373 c 0,-12.9952 3.7634,-18.3938 3.7634,-27.7471 0,-9.3533 -3.7117,-15.4379 -3.7634,-27.7471 z m -16.5687,0 h 3.9779 c 0.02,11.3858 3.3119,17.3679 3.3119,27.7471 0,10.3792 -3.3119,13.9077 -3.3119,27.7471 h -3.9779 c 0,-13.0422 3.2815,-17.9921 3.2815,-27.7471 0,-9.755 -3.2322,-15.1225 -3.2815,-27.7471 z M 321.161,0 h 4.7186 c 0.019,11.8701 2.8215,16.983 2.8215,27.7471 0,10.7641 -2.8215,13.5963 -2.8215,27.7471 h -4.7186 c 0,-13.0891 2.7997,-17.5905 2.7997,-27.7471 C 323.9608,17.5904 321.2079,12.94 321.161,0 Z m -16.5687,0 h 5.4592 c 0.018,12.3544 2.3311,16.598 2.3311,27.7471 0,11.149 -2.3311,13.2848 -2.3311,27.7471 h -5.4592 c 0,-13.1361 2.3179,-17.1888 2.3179,-27.7471 0,-10.5583 -2.2735,-14.4917 -2.3179,-27.7471 z m -16.5687,0 h 6.1998 c 0.017,12.8386 1.8406,16.2131 1.8406,27.7471 0,11.534 -1.8406,12.9733 -1.8406,27.7471 h -6.1998 c 0,-13.1831 1.836,-16.7871 1.836,-27.7471 0,-10.96 -1.7941,-14.1763 -1.836,-27.7471 z m -16.5687,0 h 6.9404 c 0.016,13.3229 1.3502,15.8282 1.3502,27.7471 0,11.9189 -1.3502,12.6619 -1.3502,27.7471 h -6.9404 c 0,-13.23 1.3541,-16.3854 1.3541,-27.7471 C 272.8091,16.3854 271.4943,13.8861 271.4549,0 Z m -16.5687,0 h 7.6811 c 0.015,13.8072 0.8597,15.4432 0.8597,27.7471 0,12.3038 -0.8597,12.3504 -0.8597,27.7471 h -7.6811 c 0,-13.277 0.8723,-15.9838 0.8723,-27.7471 0,-11.7634 -0.8353,-13.5456 -0.8723,-27.7471 z m -16.5687,0 h 8.4217 c 0.014,14.2914 0.3692,15.0583 0.3692,27.7471 0,12.6888 -0.3692,12.039 -0.3692,27.7471 h -8.4217 c 0,-13.324 0.3904,-15.5821 0.3904,-27.7471 0,-12.165 -0.3559,-13.2302 -0.3904,-27.7471 z m -16.5687,0 h 9.1623 c 0.013,14.7757 -0.1212,14.6734 -0.1212,27.7471 0,13.0737 0.1212,11.7275 0.1212,27.7471 h -9.1623 c 0,-13.3709 -0.091,-15.1804 -0.091,-27.7471 1e-4,-12.5667 0.1235,-12.9148 0.091,-27.7471 z m -16.5687,0 h 9.9029 c 0.012,15.26 -0.6116,14.2884 -0.6116,27.7471 0,13.4586 0.6116,11.416 0.6116,27.7471 h -9.9029 c 0,-13.4179 -0.5733,-14.7788 -0.5733,-27.7471 0,-12.9684 0.6028,-12.5994 0.5733,-27.7471 z m -16.5687,0 h 10.6435 c 0.011,15.7442 -1.102,13.9035 -1.102,27.7471 0,13.8436 1.102,11.1046 1.102,27.7471 h -10.6435 c 0,-13.4649 -1.0552,-14.3771 -1.0552,-27.7471 0,-13.3701 1.0823,-12.284 1.0552,-27.7471 z m -16.5688,0 h 11.3842 c 0.01,16.2285 -1.5925,13.5186 -1.5925,27.7471 0,14.2285 1.5925,10.7931 1.5925,27.7471 h -11.3842 c 0,-13.5118 -1.537,-13.9754 -1.537,-27.7471 1e-4,-13.7717 1.5617,-11.9686 1.537,-27.7471 z m -16.5687,0 h 12.1248 c 0.01,16.7128 -2.0829,13.1336 -2.0829,27.7471 0,14.6134 2.0829,10.4816 2.0829,27.7471 h -12.1248 c 0,-13.5588 -2.0188,-13.5737 -2.0188,-27.7471 0,-14.1734 2.041,-11.6532 2.0188,-27.7471 z m -16.5687,0 h 12.8654 c 0.01,17.197 -2.5733,12.7487 -2.5733,27.7471 0,14.9984 2.5733,10.1702 2.5733,27.7471 h -12.8654 c 0,-13.6058 -2.5007,-13.1721 -2.5007,-27.7471 0,-14.5751 2.5204,-11.3378 2.5007,-27.7471 z m -16.5687,0 h 13.606 c 0.01,17.6813 -3.0638,12.3638 -3.0638,27.7471 0,15.3833 3.0638,9.8587 3.0638,27.7471 h -13.606 c 0,-13.6527 -2.9826,-12.7704 -2.9826,-27.7471 1e-4,-14.9767 2.9999,-11.0224 2.9826,-27.7471 z m -16.5687,0 h 14.3466 c 0.01,18.1656 -3.5542,11.9788 -3.5542,27.7471 0,15.7682 3.5542,9.5472 3.5542,27.7471 h -14.3466 c 0,-13.6997 -3.4644,-12.3687 -3.4644,-27.7471 0,-15.3784 3.4792,-10.7071 3.4644,-27.7471 z M 89.1991,0 h 15.0872 c 0,18.6498 -4.0446,11.5939 -4.0446,27.7471 0,16.1532 4.0446,9.2358 4.0446,27.7471 H 89.1991 c 0,-13.7467 -3.9463,-11.967 -3.9463,-27.7471 C 85.2528,11.967 89.2114,17.3554 89.1991,0 Z M 72.6304,0 h 15.8278 c 0,19.1341 -4.5351,11.209 -4.5351,27.7471 0,16.5381 4.5351,8.9243 4.5351,27.7471 H 72.6304 c 0,-13.7936 -4.4282,-11.5654 -4.4282,-27.7471 C 68.2023,11.5653 72.6402,17.6708 72.6304,0 Z M 56.0617,0 h 16.5684 c 0,19.6184 -5.0255,10.824 -5.0255,27.7471 0,16.923 5.0255,8.6129 5.0255,27.7471 H 56.0617 c 0,-13.8406 -4.91,-11.1637 -4.91,-27.7471 0,-16.5834 4.9174,-9.7609 4.91,-27.7471 z M 39.493,0 h 17.3091 c 0,20.1026 -5.516,10.4391 -5.516,27.7471 0,17.3079 5.516,8.3014 5.516,27.7471 H 39.493 c 0,-13.8876 -5.3919,-10.762 -5.3919,-27.7471 C 34.1011,10.762 39.4979,18.3016 39.493,0 Z M 22.9242,0 H 40.974 c 9e-4,20.5869 -6.0064,10.0542 -6.0064,27.7471 0,17.6929 6.0064,7.9899 6.0064,27.7471 H 22.9242 c 0,-13.9346 -5.8737,-10.3604 -5.8737,-27.7471 0,-17.3868 5.8762,-9.1301 5.8737,-27.7471 z M 6.3555,0 h 18.7904 c 0,21.0712 -6.4969,9.6693 -6.4969,27.7471 0,18.0778 6.4969,7.6785 6.4969,27.7471 H 6.3555 C 6.3555,41.5127 0,45.5355 0,27.7471 0,9.9586 6.3555,18.9324 6.3555,0 Z" /></pattern><linearGradient
       id="linearGradient907"><stop
         style="stop-color:#ffffff;stop-opacity:1;"
         offset="0"
         id="stop906" /><stop
         style="stop-color:#bfbfbf;stop-opacity:1;"
         offset="1"
         id="stop907" /></linearGradient><pattern
       xlink:href="#pattern900"
       preserveAspectRatio="xMidYMid"
       id="pattern905"
       patternTransform="matrix(0.6363961,0.6363961,-0.6363961,0.6363961,281.16779,199.28928)" /><linearGradient
       id="linearGradient903"><stop
         style="stop-color:#ff0000;stop-opacity:1;"
         offset="0"
         id="stop904" /><stop
         style="stop-color:#990000;stop-opacity:1;"
         offset="1"
         id="stop905" /></linearGradient><pattern
       xlink:href="#shading10"
       preserveAspectRatio="xMidYMid"
       id="pattern900"
       patternTransform="matrix(0.6363961,0.6363961,-0.6363961,0.6363961,281.16778,199.28928)"
       x="0"
       y="0" /><pattern
       patternUnits="userSpaceOnUse"
       width="426.6123"
       height="55.4942"
       patternTransform="translate(231.9442,203.8797)"
       preserveAspectRatio="xMidYMid"
       id="shading10"
       style="fill:#ffffff"><path
         id="use37"
         style="stroke-width:0.315146;stroke-linecap:square;paint-order:markers fill stroke;stop-color:#000000"
         d="m 420.5733,0 h 0.2749 c 0.024,8.9645 5.7641,19.2925 5.7641,27.7471 0,8.4545 -5.7641,15.465 -5.7641,27.7471 h -0.2749 c 0,-12.8073 5.6908,-20.0005 5.6908,-27.7471 1e-4,-7.7466 -5.6292,-16.6995 -5.6908,-27.7471 z m -16.5687,0 h 1.0155 c 0.023,9.4488 5.2737,18.9076 5.2737,27.7471 0,8.8395 -5.2737,15.1536 -5.2737,27.7471 h -1.0155 c 0,-12.8543 5.2089,-19.5988 5.209,-27.7471 0,-8.1483 -5.1498,-16.3841 -5.209,-27.7471 z m -16.5687,0 h 1.7561 c 0.023,9.933 4.7832,18.5227 4.7832,27.7471 0,9.2244 -4.7832,14.8421 -4.7832,27.7471 h -1.7561 c 0,-12.9013 4.7271,-19.1972 4.7271,-27.7471 0,-8.55 -4.6704,-16.0687 -4.7271,-27.7471 z m -16.5687,0 h 2.4967 c 0.022,10.4173 4.2928,18.1377 4.2928,27.7471 0,9.6093 -4.2928,14.5307 -4.2928,27.7471 h -2.4967 c 0,-12.9482 4.2452,-18.7955 4.2452,-27.7471 1e-4,-8.9516 -4.191,-15.7533 -4.2452,-27.7471 z m -16.5687,0 h 3.2373 c 0.02,10.9016 3.8024,17.7528 3.8024,27.7471 0,9.9943 -3.8024,14.2192 -3.8024,27.7471 h -3.2373 c 0,-12.9952 3.7634,-18.3938 3.7634,-27.7471 0,-9.3533 -3.7117,-15.4379 -3.7634,-27.7471 z m -16.5687,0 h 3.9779 c 0.02,11.3858 3.3119,17.3679 3.3119,27.7471 0,10.3792 -3.3119,13.9077 -3.3119,27.7471 h -3.9779 c 0,-13.0422 3.2815,-17.9921 3.2815,-27.7471 0,-9.755 -3.2322,-15.1225 -3.2815,-27.7471 z M 321.161,0 h 4.7186 c 0.019,11.8701 2.8215,16.983 2.8215,27.7471 0,10.7641 -2.8215,13.5963 -2.8215,27.7471 h -4.7186 c 0,-13.0891 2.7997,-17.5905 2.7997,-27.7471 C 323.9608,17.5904 321.2079,12.94 321.161,0 Z m -16.5687,0 h 5.4592 c 0.018,12.3544 2.3311,16.598 2.3311,27.7471 0,11.149 -2.3311,13.2848 -2.3311,27.7471 h -5.4592 c 0,-13.1361 2.3179,-17.1888 2.3179,-27.7471 0,-10.5583 -2.2735,-14.4917 -2.3179,-27.7471 z m -16.5687,0 h 6.1998 c 0.017,12.8386 1.8406,16.2131 1.8406,27.7471 0,11.534 -1.8406,12.9733 -1.8406,27.7471 h -6.1998 c 0,-13.1831 1.836,-16.7871 1.836,-27.7471 0,-10.96 -1.7941,-14.1763 -1.836,-27.7471 z m -16.5687,0 h 6.9404 c 0.016,13.3229 1.3502,15.8282 1.3502,27.7471 0,11.9189 -1.3502,12.6619 -1.3502,27.7471 h -6.9404 c 0,-13.23 1.3541,-16.3854 1.3541,-27.7471 C 272.8091,16.3854 271.4943,13.8861 271.4549,0 Z m -16.5687,0 h 7.6811 c 0.015,13.8072 0.8597,15.4432 0.8597,27.7471 0,12.3038 -0.8597,12.3504 -0.8597,27.7471 h -7.6811 c 0,-13.277 0.8723,-15.9838 0.8723,-27.7471 0,-11.7634 -0.8353,-13.5456 -0.8723,-27.7471 z m -16.5687,0 h 8.4217 c 0.014,14.2914 0.3692,15.0583 0.3692,27.7471 0,12.6888 -0.3692,12.039 -0.3692,27.7471 h -8.4217 c 0,-13.324 0.3904,-15.5821 0.3904,-27.7471 0,-12.165 -0.3559,-13.2302 -0.3904,-27.7471 z m -16.5687,0 h 9.1623 c 0.013,14.7757 -0.1212,14.6734 -0.1212,27.7471 0,13.0737 0.1212,11.7275 0.1212,27.7471 h -9.1623 c 0,-13.3709 -0.091,-15.1804 -0.091,-27.7471 1e-4,-12.5667 0.1235,-12.9148 0.091,-27.7471 z m -16.5687,0 h 9.9029 c 0.012,15.26 -0.6116,14.2884 -0.6116,27.7471 0,13.4586 0.6116,11.416 0.6116,27.7471 h -9.9029 c 0,-13.4179 -0.5733,-14.7788 -0.5733,-27.7471 0,-12.9684 0.6028,-12.5994 0.5733,-27.7471 z m -16.5687,0 h 10.6435 c 0.011,15.7442 -1.102,13.9035 -1.102,27.7471 0,13.8436 1.102,11.1046 1.102,27.7471 h -10.6435 c 0,-13.4649 -1.0552,-14.3771 -1.0552,-27.7471 0,-13.3701 1.0823,-12.284 1.0552,-27.7471 z m -16.5688,0 h 11.3842 c 0.01,16.2285 -1.5925,13.5186 -1.5925,27.7471 0,14.2285 1.5925,10.7931 1.5925,27.7471 h -11.3842 c 0,-13.5118 -1.537,-13.9754 -1.537,-27.7471 1e-4,-13.7717 1.5617,-11.9686 1.537,-27.7471 z m -16.5687,0 h 12.1248 c 0.01,16.7128 -2.0829,13.1336 -2.0829,27.7471 0,14.6134 2.0829,10.4816 2.0829,27.7471 h -12.1248 c 0,-13.5588 -2.0188,-13.5737 -2.0188,-27.7471 0,-14.1734 2.041,-11.6532 2.0188,-27.7471 z m -16.5687,0 h 12.8654 c 0.01,17.197 -2.5733,12.7487 -2.5733,27.7471 0,14.9984 2.5733,10.1702 2.5733,27.7471 h -12.8654 c 0,-13.6058 -2.5007,-13.1721 -2.5007,-27.7471 0,-14.5751 2.5204,-11.3378 2.5007,-27.7471 z m -16.5687,0 h 13.606 c 0.01,17.6813 -3.0638,12.3638 -3.0638,27.7471 0,15.3833 3.0638,9.8587 3.0638,27.7471 h -13.606 c 0,-13.6527 -2.9826,-12.7704 -2.9826,-27.7471 1e-4,-14.9767 2.9999,-11.0224 2.9826,-27.7471 z m -16.5687,0 h 14.3466 c 0.01,18.1656 -3.5542,11.9788 -3.5542,27.7471 0,15.7682 3.5542,9.5472 3.5542,27.7471 h -14.3466 c 0,-13.6997 -3.4644,-12.3687 -3.4644,-27.7471 0,-15.3784 3.4792,-10.7071 3.4644,-27.7471 z M 89.1991,0 h 15.0872 c 0,18.6498 -4.0446,11.5939 -4.0446,27.7471 0,16.1532 4.0446,9.2358 4.0446,27.7471 H 89.1991 c 0,-13.7467 -3.9463,-11.967 -3.9463,-27.7471 C 85.2528,11.967 89.2114,17.3554 89.1991,0 Z M 72.6304,0 h 15.8278 c 0,19.1341 -4.5351,11.209 -4.5351,27.7471 0,16.5381 4.5351,8.9243 4.5351,27.7471 H 72.6304 c 0,-13.7936 -4.4282,-11.5654 -4.4282,-27.7471 C 68.2023,11.5653 72.6402,17.6708 72.6304,0 Z M 56.0617,0 h 16.5684 c 0,19.6184 -5.0255,10.824 -5.0255,27.7471 0,16.923 5.0255,8.6129 5.0255,27.7471 H 56.0617 c 0,-13.8406 -4.91,-11.1637 -4.91,-27.7471 0,-16.5834 4.9174,-9.7609 4.91,-27.7471 z M 39.493,0 h 17.3091 c 0,20.1026 -5.516,10.4391 -5.516,27.7471 0,17.3079 5.516,8.3014 5.516,27.7471 H 39.493 c 0,-13.8876 -5.3919,-10.762 -5.3919,-27.7471 C 34.1011,10.762 39.4979,18.3016 39.493,0 Z M 22.9242,0 H 40.974 c 9e-4,20.5869 -6.0064,10.0542 -6.0064,27.7471 0,17.6929 6.0064,7.9899 6.0064,27.7471 H 22.9242 c 0,-13.9346 -5.8737,-10.3604 -5.8737,-27.7471 0,-17.3868 5.8762,-9.1301 5.8737,-27.7471 z M 6.3555,0 h 18.7904 c 0,21.0712 -6.4969,9.6693 -6.4969,27.7471 0,18.0778 6.4969,7.6785 6.4969,27.7471 H 6.3555 C 6.3555,41.5127 0,45.5355 0,27.7471 0,9.9586 6.3555,18.9324 6.3555,0 Z" /></pattern><radialGradient
       xlink:href="#linearGradient907"
       id="radialGradient905"
       cx="23.509886"
       cy="187.12994"
       fx="23.509886"
       fy="187.12994"
       r="13.498145"
       gradientTransform="matrix(-5.5493716,2.5959896,-8.5036157,-18.177928,1749.0054,3396.235)"
       gradientUnits="userSpaceOnUse" /><radialGradient
       xlink:href="#linearGradient903"
       id="radialGradient905-2"
       cx="23.509886"
       cy="187.12994"
       fx="23.509886"
       fy="187.12994"
       r="13.498145"
       gradientTransform="matrix(-4.7718734,2.453396,-7.3122113,-17.179443,1535.3583,3217.5708)"
       gradientUnits="userSpaceOnUse" /><mask
       maskUnits="userSpaceOnUse"
       id="mask905"><rect
         style="display:inline;fill:url(#pattern905);fill-opacity:1;stroke:#1ea7e1;stroke-width:0.264999;stroke-dasharray:0.264999, 0.264999;stroke-opacity:1"
         id="rect905"
         width="26.731289"
         height="121.59944"
         x="77.666496"
         y="141.32751"
         ry="3.2797666"
         rx="0" /></mask><radialGradient
       xlink:href="#linearGradient224"
       id="radialGradient913"
       cx="19.307205"
       cy="85.063354"
       fx="19.307205"
       fy="85.063354"
       r="30.808249"
       gradientTransform="matrix(-1.4328904,1.0098946,-4.4515135,-6.3160358,432.30283,578.61871)"
       gradientUnits="userSpaceOnUse" /><radialGradient
       xlink:href="#linearGradient907"
       id="radialGradient914"
       cx="19.307207"
       cy="85.063354"
       fx="19.307203"
       fy="85.063354"
       r="30.808249"
       gradientTransform="matrix(-1.4328903,1.0098948,-4.4515146,-6.3160359,432.30291,578.6187)"
       gradientUnits="userSpaceOnUse" /><radialGradient
       xlink:href="#linearGradient903"
       id="radialGradient914-2"
       cx="19.307207"
       cy="85.063354"
       fx="19.307203"
       fy="85.063354"
       r="30.808249"
       gradientTransform="matrix(-1.4328903,1.0098948,-4.4515146,-6.3160359,476.69976,594.72815)"
       gradientUnits="userSpaceOnUse" /><radialGradient
       xlink:href="#linearGradient226"
       id="radialGradient913-9"
       cx="19.307205"
       cy="85.063354"
       fx="19.307205"
       fy="85.063354"
       r="30.808249"
       gradientTransform="matrix(-1.4328904,1.0098946,-4.4515135,-6.3160358,476.69968,594.72816)"
       gradientUnits="userSpaceOnUse" /><mask
       maskUnits="userSpaceOnUse"
       id="mask917"><path
         id="path917"
         style="display:inline;fill:url(#pattern917);fill-opacity:1;stroke:#ffffff;stroke-width:0.264999;stroke-dasharray:0.264999, 0.264999;stroke-opacity:0"
         d="m 41.719357,60.910401 8.557625,-0.0028 c 2.826425,-0.0011 4.112202,6.260708 4.124926,9.087104 l 0.02466,5.478171 0.02249,19.287771 c 0,0 0.0075,6.429253 0.01124,9.643883 0.0037,3.21461 -0.04663,6.48876 1.377808,9.37057 1.355187,2.7417 3.488621,3.99367 5.916212,5.85386 2.427592,1.86018 7.282776,5.58055 7.282776,5.58055 l 14.56555,11.16111 14.535463,11.04355 c 2.250543,1.70988 -0.909789,1.77744 -2.201694,4.29134 l -3.479707,6.77107 c -1.291907,2.5139 -4.838576,2.79187 -7.125846,1.13141 L 66.604602,146.01351 c 0,0 -20.248237,-12.72366 -25.137038,-22.45106 -4.888799,-9.72739 -3.783687,-15.85146 -3.795043,-25.194738 -0.01148,-9.442471 0.120631,-28.327188 0.120631,-28.327188 0.01204,-2.826393 1.099786,-9.129202 3.926208,-9.130128 z" /></mask><radialGradient
       xlink:href="#linearGradient4"
       id="radialGradient914-3"
       cx="19.307207"
       cy="85.063354"
       fx="19.307203"
       fy="85.063354"
       r="30.808249"
       gradientTransform="matrix(-1.4328903,1.0098948,-4.4515146,-6.3160359,432.30291,578.6187)"
       gradientUnits="userSpaceOnUse" /><radialGradient
       xlink:href="#linearGradient2"
       id="radialGradient913-6"
       cx="19.307205"
       cy="85.063354"
       fx="19.307205"
       fy="85.063354"
       r="30.808249"
       gradientTransform="matrix(-1.4328904,1.0098946,-4.4515135,-6.3160358,432.30283,578.61871)"
       gradientUnits="userSpaceOnUse" /><mask
       maskUnits="userSpaceOnUse"
       id="mask917-0"><path
         id="path917-6"
         style="display:inline;fill:url(#pattern917-6);fill-opacity:1;stroke:#ffffff;stroke-width:0.264999;stroke-dasharray:0.264999, 0.264999;stroke-opacity:0"
         d="m 41.719357,60.910401 8.557625,-0.0028 c 2.826425,-0.0011 4.112202,6.260708 4.124926,9.087104 l 0.02466,5.478171 0.02249,19.287771 c 0,0 0.0075,6.429253 0.01124,9.643883 0.0037,3.21461 -0.04663,6.48876 1.377808,9.37057 1.355187,2.7417 3.488621,3.99367 5.916212,5.85386 2.427592,1.86018 7.282776,5.58055 7.282776,5.58055 l 14.56555,11.16111 14.535463,11.04355 c 2.250543,1.70988 -0.909789,1.77744 -2.201694,4.29134 l -3.479707,6.77107 c -1.291907,2.5139 -4.838576,2.79187 -7.125846,1.13141 L 66.604602,146.01351 c 0,0 -20.248237,-12.72366 -25.137038,-22.45106 -4.888799,-9.72739 -3.783687,-15.85146 -3.795043,-25.194738 -0.01148,-9.442471 0.120631,-28.327188 0.120631,-28.327188 0.01204,-2.826393 1.099786,-9.129202 3.926208,-9.130128 z" /></mask><pattern
       xlink:href="#pattern916-1"
       preserveAspectRatio="xMidYMid"
       id="pattern917-6"
       patternTransform="rotate(45,-55.611272,467.61329)" /><pattern
       xlink:href="#pattern915-8"
       preserveAspectRatio="xMidYMid"
       id="pattern916-1"
       patternTransform="rotate(45,-55.611269,467.61329)"
       x="4"
       y="0"
       width="511.93476563" /><pattern
       patternUnits="userSpaceOnUse"
       width="426.6123"
       height="55.4942"
       patternTransform="translate(231.9442,203.8797)"
       preserveAspectRatio="xMidYMid"
       id="pattern915-8"
       style="fill:#ffffff"><path
         id="path914-4"
         style="stroke-width:0.315146;stroke-linecap:square;paint-order:markers fill stroke;stop-color:#000000"
         d="m 420.5733,0 h 0.2749 c 0.024,8.9645 5.7641,19.2925 5.7641,27.7471 0,8.4545 -5.7641,15.465 -5.7641,27.7471 h -0.2749 c 0,-12.8073 5.6908,-20.0005 5.6908,-27.7471 1e-4,-7.7466 -5.6292,-16.6995 -5.6908,-27.7471 z m -16.5687,0 h 1.0155 c 0.023,9.4488 5.2737,18.9076 5.2737,27.7471 0,8.8395 -5.2737,15.1536 -5.2737,27.7471 h -1.0155 c 0,-12.8543 5.2089,-19.5988 5.209,-27.7471 0,-8.1483 -5.1498,-16.3841 -5.209,-27.7471 z m -16.5687,0 h 1.7561 c 0.023,9.933 4.7832,18.5227 4.7832,27.7471 0,9.2244 -4.7832,14.8421 -4.7832,27.7471 h -1.7561 c 0,-12.9013 4.7271,-19.1972 4.7271,-27.7471 0,-8.55 -4.6704,-16.0687 -4.7271,-27.7471 z m -16.5687,0 h 2.4967 c 0.022,10.4173 4.2928,18.1377 4.2928,27.7471 0,9.6093 -4.2928,14.5307 -4.2928,27.7471 h -2.4967 c 0,-12.9482 4.2452,-18.7955 4.2452,-27.7471 1e-4,-8.9516 -4.191,-15.7533 -4.2452,-27.7471 z m -16.5687,0 h 3.2373 c 0.02,10.9016 3.8024,17.7528 3.8024,27.7471 0,9.9943 -3.8024,14.2192 -3.8024,27.7471 h -3.2373 c 0,-12.9952 3.7634,-18.3938 3.7634,-27.7471 0,-9.3533 -3.7117,-15.4379 -3.7634,-27.7471 z m -16.5687,0 h 3.9779 c 0.02,11.3858 3.3119,17.3679 3.3119,27.7471 0,10.3792 -3.3119,13.9077 -3.3119,27.7471 h -3.9779 c 0,-13.0422 3.2815,-17.9921 3.2815,-27.7471 0,-9.755 -3.2322,-15.1225 -3.2815,-27.7471 z M 321.161,0 h 4.7186 c 0.019,11.8701 2.8215,16.983 2.8215,27.7471 0,10.7641 -2.8215,13.5963 -2.8215,27.7471 h -4.7186 c 0,-13.0891 2.7997,-17.5905 2.7997,-27.7471 C 323.9608,17.5904 321.2079,12.94 321.161,0 Z m -16.5687,0 h 5.4592 c 0.018,12.3544 2.3311,16.598 2.3311,27.7471 0,11.149 -2.3311,13.2848 -2.3311,27.7471 h -5.4592 c 0,-13.1361 2.3179,-17.1888 2.3179,-27.7471 0,-10.5583 -2.2735,-14.4917 -2.3179,-27.7471 z m -16.5687,0 h 6.1998 c 0.017,12.8386 1.8406,16.2131 1.8406,27.7471 0,11.534 -1.8406,12.9733 -1.8406,27.7471 h -6.1998 c 0,-13.1831 1.836,-16.7871 1.836,-27.7471 0,-10.96 -1.7941,-14.1763 -1.836,-27.7471 z m -16.5687,0 h 6.9404 c 0.016,13.3229 1.3502,15.8282 1.3502,27.7471 0,11.9189 -1.3502,12.6619 -1.3502,27.7471 h -6.9404 c 0,-13.23 1.3541,-16.3854 1.3541,-27.7471 C 272.8091,16.3854 271.4943,13.8861 271.4549,0 Z m -16.5687,0 h 7.6811 c 0.015,13.8072 0.8597,15.4432 0.8597,27.7471 0,12.3038 -0.8597,12.3504 -0.8597,27.7471 h -7.6811 c 0,-13.277 0.8723,-15.9838 0.8723,-27.7471 0,-11.7634 -0.8353,-13.5456 -0.8723,-27.7471 z m -16.5687,0 h 8.4217 c 0.014,14.2914 0.3692,15.0583 0.3692,27.7471 0,12.6888 -0.3692,12.039 -0.3692,27.7471 h -8.4217 c 0,-13.324 0.3904,-15.5821 0.3904,-27.7471 0,-12.165 -0.3559,-13.2302 -0.3904,-27.7471 z m -16.5687,0 h 9.1623 c 0.013,14.7757 -0.1212,14.6734 -0.1212,27.7471 0,13.0737 0.1212,11.7275 0.1212,27.7471 h -9.1623 c 0,-13.3709 -0.091,-15.1804 -0.091,-27.7471 1e-4,-12.5667 0.1235,-12.9148 0.091,-27.7471 z m -16.5687,0 h 9.9029 c 0.012,15.26 -0.6116,14.2884 -0.6116,27.7471 0,13.4586 0.6116,11.416 0.6116,27.7471 h -9.9029 c 0,-13.4179 -0.5733,-14.7788 -0.5733,-27.7471 0,-12.9684 0.6028,-12.5994 0.5733,-27.7471 z m -16.5687,0 h 10.6435 c 0.011,15.7442 -1.102,13.9035 -1.102,27.7471 0,13.8436 1.102,11.1046 1.102,27.7471 h -10.6435 c 0,-13.4649 -1.0552,-14.3771 -1.0552,-27.7471 0,-13.3701 1.0823,-12.284 1.0552,-27.7471 z m -16.5688,0 h 11.3842 c 0.01,16.2285 -1.5925,13.5186 -1.5925,27.7471 0,14.2285 1.5925,10.7931 1.5925,27.7471 h -11.3842 c 0,-13.5118 -1.537,-13.9754 -1.537,-27.7471 1e-4,-13.7717 1.5617,-11.9686 1.537,-27.7471 z m -16.5687,0 h 12.1248 c 0.01,16.7128 -2.0829,13.1336 -2.0829,27.7471 0,14.6134 2.0829,10.4816 2.0829,27.7471 h -12.1248 c 0,-13.5588 -2.0188,-13.5737 -2.0188,-27.7471 0,-14.1734 2.041,-11.6532 2.0188,-27.7471 z m -16.5687,0 h 12.8654 c 0.01,17.197 -2.5733,12.7487 -2.5733,27.7471 0,14.9984 2.5733,10.1702 2.5733,27.7471 h -12.8654 c 0,-13.6058 -2.5007,-13.1721 -2.5007,-27.7471 0,-14.5751 2.5204,-11.3378 2.5007,-27.7471 z m -16.5687,0 h 13.606 c 0.01,17.6813 -3.0638,12.3638 -3.0638,27.7471 0,15.3833 3.0638,9.8587 3.0638,27.7471 h -13.606 c 0,-13.6527 -2.9826,-12.7704 -2.9826,-27.7471 1e-4,-14.9767 2.9999,-11.0224 2.9826,-27.7471 z m -16.5687,0 h 14.3466 c 0.01,18.1656 -3.5542,11.9788 -3.5542,27.7471 0,15.7682 3.5542,9.5472 3.5542,27.7471 h -14.3466 c 0,-13.6997 -3.4644,-12.3687 -3.4644,-27.7471 0,-15.3784 3.4792,-10.7071 3.4644,-27.7471 z M 89.1991,0 h 15.0872 c 0,18.6498 -4.0446,11.5939 -4.0446,27.7471 0,16.1532 4.0446,9.2358 4.0446,27.7471 H 89.1991 c 0,-13.7467 -3.9463,-11.967 -3.9463,-27.7471 C 85.2528,11.967 89.2114,17.3554 89.1991,0 Z M 72.6304,0 h 15.8278 c 0,19.1341 -4.5351,11.209 -4.5351,27.7471 0,16.5381 4.5351,8.9243 4.5351,27.7471 H 72.6304 c 0,-13.7936 -4.4282,-11.5654 -4.4282,-27.7471 C 68.2023,11.5653 72.6402,17.6708 72.6304,0 Z M 56.0617,0 h 16.5684 c 0,19.6184 -5.0255,10.824 -5.0255,27.7471 0,16.923 5.0255,8.6129 5.0255,27.7471 H 56.0617 c 0,-13.8406 -4.91,-11.1637 -4.91,-27.7471 0,-16.5834 4.9174,-9.7609 4.91,-27.7471 z M 39.493,0 h 17.3091 c 0,20.1026 -5.516,10.4391 -5.516,27.7471 0,17.3079 5.516,8.3014 5.516,27.7471 H 39.493 c 0,-13.8876 -5.3919,-10.762 -5.3919,-27.7471 C 34.1011,10.762 39.4979,18.3016 39.493,0 Z M 22.9242,0 H 40.974 c 9e-4,20.5869 -6.0064,10.0542 -6.0064,27.7471 0,17.6929 6.0064,7.9899 6.0064,27.7471 H 22.9242 c 0,-13.9346 -5.8737,-10.3604 -5.8737,-27.7471 0,-17.3868 5.8762,-9.1301 5.8737,-27.7471 z M 6.3555,0 h 18.7904 c 0,21.0712 -6.4969,9.6693 -6.4969,27.7471 0,18.0778 6.4969,7.6785 6.4969,27.7471 H 6.3555 C 6.3555,41.5127 0,45.5355 0,27.7471 0,9.9586 6.3555,18.9324 6.3555,0 Z" /></pattern><radialGradient
       xlink:href="#linearGradient6"
       id="radialGradient914-2-9"
       cx="19.307207"
       cy="85.063354"
       fx="19.307203"
       fy="85.063354"
       r="30.808249"
       gradientTransform="matrix(1.2650434,0.93185836,3.9300699,-5.8279841,-211.78894,560.50575)"
       gradientUnits="userSpaceOnUse" /><radialGradient
       xlink:href="#linearGradient903"
       id="radialGradient913-9-7"
       cx="19.307205"
       cy="85.063354"
       fx="19.307205"
       fy="85.063354"
       r="30.808249"
       gradientTransform="matrix(1.2650435,0.93185818,3.9300689,-5.827984,-211.78887,560.50576)"
       gradientUnits="userSpaceOnUse" /><clipPath
       clipPathUnits="userSpaceOnUse"
       id="clipPath184"><path
         id="path185"
         style="fill:#ff0000;fill-opacity:1;fill-rule:nonzero;stroke:none;stroke-width:0.293143"
         d="M 98.925292,60.907568 V 160.6523 H 37.572858 V 60.907568 Z M 88.586038,139.67882 c -0.419118,-0.008 -0.669438,0.48979 -0.206036,1.04784 0.141375,0.17024 0.313291,0.31422 0.480556,0.46035 0.02287,0.0203 0.04534,0.041 0.0679,0.0616 -0.05411,0.0293 -0.107936,0.0586 -0.162135,0.0879 -0.283952,0.15379 -0.569405,0.30605 -0.84112,0.47939 -0.580761,0.37854 -1.158542,0.77372 -1.634238,1.27297 -0.279375,0.30439 -0.540395,0.6232 -0.786097,0.95319 -0.106908,0.14252 -0.215542,0.28365 -0.331294,0.41947 -0.23308,0.18172 -0.458784,0.37211 -0.678399,0.569 -0.189852,0.17779 -0.323337,0.2955 -0.4747,0.45755 -0.09896,0.0634 -0.200033,0.12345 -0.303201,0.18089 -0.285852,0.16192 -0.57183,0.32569 -0.824143,0.53428 -0.12776,0.10637 -0.253132,0.21596 -0.369342,0.33323 0.01552,-0.0854 0.03031,-0.17085 0.0439,-0.2565 0.162563,-1.02496 -0.913396,-1.13906 -1.088127,-0.11593 -0.04801,0.28116 -0.105607,0.56099 -0.159794,0.84118 -0.09232,0.45533 -0.197986,0.90801 -0.299688,1.36146 -0.09255,0.39639 -0.181249,0.79315 -0.253447,1.19344 -0.07519,0.41284 -0.107123,0.83091 -0.129357,1.24889 -0.02335,0.38451 -0.0087,0.76919 0.0058,1.15368 0.0097,0.28821 0.04582,0.57452 0.08838,0.85966 0.02616,0.19354 0.06785,0.38459 0.111211,0.57516 0.04719,0.18568 0.08942,0.37249 0.138139,0.5578 0.0816,0.30993 0.267442,0.50967 0.609326,0.57404 0.145915,0.0274 0.247048,-0.003 0.383976,-0.0291 0.191156,-0.056 0.358628,-0.1566 0.517433,-0.26938 0.06437,-0.0262 0.122486,-0.0683 0.169744,-0.12545 0.01369,-0.0104 0.02733,-0.021 0.04097,-0.0314 0.337192,-0.28896 0.685385,-0.56521 1.033691,-0.84174 0.488106,-0.38619 0.954095,-0.7971 1.434642,-1.19176 0.13792,-0.11057 0.275132,-0.22228 0.413828,-0.33211 -0.107984,0.27644 -0.213285,0.5539 -0.314322,0.83278 -0.354882,0.97953 0.68931,1.27945 1.048325,0.3013 0.310897,-0.84704 0.656629,-1.68195 0.99974,-2.51738 0.03712,-0.0869 0.07358,-0.17432 0.110042,-0.26153 0.05215,0.20807 0.189439,0.33602 0.351784,0.37018 -0.09992,0.63141 0.645058,0.88574 1.101588,0.13161 0.0285,-0.047 0.05696,-0.0941 0.08546,-0.14113 0.22791,-0.41102 0.430424,-0.83453 0.622788,-1.26177 0.155853,0.0195 0.342916,-0.0904 0.443095,-0.36906 0.05317,-0.14793 0.10603,-0.29621 0.15921,-0.44412 0.158406,-0.41678 0.208589,-0.56357 0.378707,-0.95318 0.0089,0.0135 0.0175,0.0276 0.02574,0.0414 0.10448,-0.0375 0.219722,-0.0556 0.313734,-0.11313 0.09594,-0.0587 0.280533,-0.35019 0.328956,-0.42171 0.223427,-0.33 0.44282,-0.66228 0.656741,-0.99799 0.275986,-0.43923 0.556051,-0.87765 0.821215,-1.32337 0.460298,0.2676 0.935858,0.50891 1.415911,0.74205 0.966169,0.46925 1.461476,-0.46456 0.495187,-0.93359 -0.446509,-0.21672 -0.889508,-0.4409 -1.318161,-0.68884 0.176963,-0.0531 0.291935,-0.18872 0.309056,-0.35843 0.348619,-0.24211 0.70274,-0.47676 1.081102,-0.67541 0.473535,-0.24861 0.383925,-0.66769 0.02985,-0.68213 -0.01142,-5.7e-4 -0.02317,-2.8e-4 -0.03512,0 -0.08833,0.003 -0.191243,0.0298 -0.30437,0.0885 -0.380937,0.19751 -0.739235,0.4295 -1.09047,0.67093 -0.03265,-0.0265 -0.06776,-0.0527 -0.105943,-0.0784 -0.116642,-0.0785 -0.233385,-0.15675 -0.350027,-0.23521 -0.03202,-0.0198 -0.06363,-0.0398 -0.09541,-0.0599 0.03733,-0.16478 0.06425,-0.33155 0.07726,-0.50067 0.0264,-0.13057 0.03851,-0.26523 0.0012,-0.39035 -0.01163,-0.1127 -0.03577,-0.21019 -0.0679,-0.37859 -0.03322,-0.087 -0.05925,-0.17698 -0.100093,-0.26098 -0.109221,-0.22454 -0.278656,-0.41531 -0.508649,-0.53315 -0.182765,-0.0937 -0.282094,-0.0979 -0.480556,-0.13497 -0.06315,-0.0118 -0.121129,-0.0165 -0.174428,-0.0151 v -5.7e-4 c -0.515231,0.0135 -0.560642,0.58845 0.05561,0.66869 0.0983,0.0128 0.222534,0.0186 0.307882,0.0762 0.04171,0.0282 0.076,0.0632 0.104774,0.10192 -0.03373,0.006 -0.06727,0.0136 -0.09951,0.0247 -0.05606,0.0191 -0.108119,0.0457 -0.157454,0.0767 -0.02101,-0.002 -0.04263,-0.003 -0.06439,-0.002 -0.118302,0.004 -0.246083,0.0513 -0.366414,0.15009 -0.06423,-0.0521 -0.143997,-0.0833 -0.233547,-0.0885 -0.0122,-5.7e-4 -0.02434,-5.7e-4 -0.03688,-5.7e-4 -0.13839,0.003 -0.297093,0.0661 -0.454801,0.20553 -0.0088,-0.009 -0.01744,-0.0191 -0.02634,-0.0286 -0.295897,-0.32042 -0.598427,-0.63603 -0.926576,-0.92686 -0.134333,-0.11723 -0.274788,-0.23114 -0.387489,-0.3685 -0.209071,-0.25483 -0.434038,-0.36263 -0.624547,-0.36628 z m -0.27569,5.07788 c -0.0331,0.0645 -0.06718,0.12837 -0.09951,0.19321 0.0082,-0.0184 0.01352,-0.0378 0.02224,-0.056 0.02131,-0.0444 0.05057,-0.0902 0.07726,-0.13721 z m -4.969443,6.59447 c 0.0037,0.005 0.0077,0.0103 0.01172,0.0157 -0.0037,8.6e-4 -0.0074,0.002 -0.0093,0.003 -3e-4,3e-5 -8.99e-4,0 -0.0012,0 l -5.99e-4,5.8e-4 h -6e-4 -5.99e-4 v -5.8e-4 h -6e-4 -5.99e-4 l -5.99e-4,-5.7e-4 v -5.7e-4 l -6e-4,-5.8e-4 v -5.7e-4 c 8.99e-4,-0.006 0.0021,-0.0108 0.003,-0.0162 z" /></clipPath><clipPath
       clipPathUnits="userSpaceOnUse"
       id="clipPath216"><path
         id="path217"
         style="fill:#ff0000;fill-opacity:1;fill-rule:nonzero;stroke:none;stroke-width:0.264583"
         d="m 82.417192,82.679191 v 80.816259 c 0.0324,-0.0972 0.07106,-0.19267 0.112655,-0.28629 0.106333,-0.22754 0.250314,-0.43376 0.393258,-0.63924 0.09846,-0.13067 0.199601,-0.25933 0.301789,-0.38705 0.03603,-0.0702 0.08382,-0.1426 0.145211,-0.21601 0.08818,-0.10544 0.05947,-0.0701 0.176734,-0.21653 0.06562,-0.0819 0.1275,-0.16678 0.196371,-0.24598 0.05568,-0.064 0.116742,-0.11412 0.171564,-0.17415 0.143327,-0.16709 0.291573,-0.33063 0.461989,-0.47025 l 5.29e-4,-5.3e-4 5.29e-4,-5.3e-4 c 2.65e-4,-2.6e-4 5.29e-4,-5.3e-4 0.0011,-0.001 0.06546,-0.0621 0.119118,-0.12912 0.189651,-0.19275 0.196929,-0.17766 0.403061,-0.34438 0.604615,-0.51677 1.097907,-0.87738 2.257738,-1.67348 3.424082,-2.45618 0.172966,-0.11607 0.333705,-0.16919 0.471289,-0.17518 0.392808,-0.38485 0.776385,-0.77949 1.163751,-1.16944 0.15635,-0.1601 0.311063,-0.32176 0.468707,-0.48059 0.401502,-0.4045 0.483372,-0.47256 0.885216,-0.87385 0.385286,-0.38475 0.762305,-0.77789 1.137399,-1.17253 0.303681,-0.30404 0.607983,-0.60574 0.965316,-0.8475 0.154546,-0.10456 0.300641,-0.15868 0.429432,-0.17415 0.102952,-0.11106 0.208923,-0.21924 0.318844,-0.32401 0.279043,-0.25071 0.596916,-0.45121 0.917255,-0.64389 0.185389,-0.11758 0.385863,-0.20335 0.592212,-0.27595 0.140994,-0.0496 0.267642,-0.069 0.377756,-0.0651 0.594622,0.0207 0.703069,0.71754 -0.06098,0.97772 -0.144092,0.0491 -0.282372,0.10862 -0.41083,0.19172 -0.2604,0.1565 -0.520464,0.31665 -0.750342,0.51676 -0.256757,0.24177 -0.485754,0.50881 -0.705382,0.78445 -0.19577,0.24994 -0.391668,0.49935 -0.588079,0.74879 -0.205761,0.26949 -0.419787,0.53289 -0.620633,0.80615 -0.204427,0.27571 -0.41334,0.54713 -0.635103,0.80926 -0.159126,0.19139 -0.318516,0.38275 -0.478523,0.5736 0.0026,-0.001 0.0051,-0.002 0.0078,-0.003 0.188703,-0.0761 0.392133,-0.0636 0.560689,0.0419 0.01169,-0.0707 0.02619,-0.14065 0.04961,-0.21549 0.10582,-0.33824 0.28642,-0.64483 0.46664,-0.94723 0.227833,-0.36944 0.520161,-0.69157 0.82889,-0.99425 0.228176,-0.21907 0.481459,-0.40945 0.724503,-0.61134 0.208563,-0.17278 0.423749,-0.33744 0.638204,-0.50281 0.203872,-0.15574 0.402064,-0.31891 0.597379,-0.48524 0.09095,-0.0807 0.186058,-0.15845 0.268719,-0.24805 0.03654,-0.0396 0.06768,-0.084 0.101285,-0.12609 0.09992,-0.12355 0.191386,-0.2545 0.267166,-0.39429 0.09057,-0.20604 0.239786,-0.38638 0.471289,-0.44028 0.03843,-0.009 0.07815,-0.01 0.117824,-0.01 0.03968,2.6e-4 0.07943,0.003 0.118856,0.001 0.06014,0.0184 0.122738,0.03 0.180351,0.0553 0.248946,0.10918 0.374729,0.3403 0.47439,0.57671 0.07891,0.21096 0.112347,0.434 0.135908,0.6568 0.01466,0.19193 7.94e-4,0.38459 -0.03359,0.57361 -0.02349,0.10548 -0.03946,0.21236 -0.04961,0.31988 -0.0118,0.1711 -0.01183,0.34276 -0.01344,0.51418 -0.0021,0.31509 -0.0027,0.63007 -0.0031,0.94516 -2.65e-4,0.31235 -5.29e-4,0.62455 -5.29e-4,0.9369 -5.6e-5,0.35851 8e-6,0.71739 0,1.0759 -8e-6,0.39639 0,0.79268 0,1.18907 v 1.67432 1.80402 1.83038 1.79266 1.55856 c 0.0011,0.58588 0.0011,1.1722 -0.0067,1.75803 -0.0072,0.45525 -0.01431,0.91052 -0.01913,1.36581 -0.0026,0.24936 -0.0042,0.49838 -0.0052,0.74776 0.0042,0.21863 -0.0343,0.43526 -0.08061,0.64802 -0.03211,0.17323 -0.08147,0.34076 -0.151413,0.5023 -0.116554,0.24978 -0.328528,0.42123 -0.543118,0.58342 -0.202758,0.15118 -0.428109,0.26699 -0.655259,0.37621 -0.200798,0.0973 -0.411885,0.17083 -0.625285,0.23513 -0.192222,0.0569 -0.38835,0.0999 -0.583427,0.14572 -0.190802,0.0412 -0.384305,0.07 -0.577742,0.0956 -0.217892,0.0363 -0.433808,0.006 -0.644921,-0.0501 -0.186399,-0.056 -0.370634,-0.11919 -0.553972,-0.18449 -0.211333,-0.0754 -0.422299,-0.15022 -0.636653,-0.21652 -0.212601,-0.0646 -0.428946,-0.11498 -0.644404,-0.16898 -0.02786,-0.006 -0.05546,-0.0115 -0.0832,-0.0176 -0.182081,0.0149 -0.365297,0.0207 -0.547769,0.0258 -0.235638,0.003 -0.472382,-0.005 -0.70435,-0.0501 -0.171072,-0.0335 -0.218263,-0.0536 -0.382924,-0.10646 -0.283776,-0.11566 -0.566036,-0.24656 -0.819586,-0.42064 -0.05897,-0.0405 -0.115517,-0.0852 -0.173117,-0.12764 -0.305813,-0.25046 -0.570738,-0.5455 -0.805119,-0.863 -0.158896,-0.21527 -0.250635,-0.36404 -0.395841,-0.58756 -0.261384,-0.42423 -0.520319,-0.85064 -0.747241,-1.29449 -0.309057,-0.601 -0.475263,-1.26151 -0.650089,-1.91049 -0.226992,-0.94565 -0.39891,-1.90364 -0.580843,-2.85873 -0.150892,-0.75283 -0.285803,-1.50808 -0.387575,-2.26912 -0.673412,-0.0143 -0.597524,-0.35987 -0.0832,-0.75344 -0.01217,-0.1323 -0.02188,-0.26501 -0.02585,-0.39791 -0.0024,-0.0765 -0.0075,-0.15376 -0.0011,-0.22996 0.0091,-0.0974 0.03266,-0.19245 0.04909,-0.28888 0.0053,-0.0138 0.01056,-0.0279 0.0155,-0.0418 -0.06019,0.009 -0.116964,0.0104 -0.168984,0.003 -0.213381,0.12421 -0.425495,0.25003 -0.633034,0.38395 -0.0329,0.0242 -0.06623,0.048 -0.0987,0.0729 -0.0587,0.0559 -0.115316,0.0963 -0.188619,0.1695 -0.09972,0.1004 -0.192243,0.20812 -0.283186,0.31574 -0.158213,0.19569 -0.309541,0.39696 -0.470257,0.59066 -0.126545,0.15609 -0.250928,0.31372 -0.373621,0.47284 -0.109421,0.15725 -0.222038,0.31365 -0.30644,0.48627 -0.04881,0.10391 -0.08511,0.21157 -0.113173,0.32298 -0.169582,0.6733 -0.668218,0.8223 -0.879531,0.49093 v 10.53424 H 136.82214 V 82.679191 Z M 97.501025,152.739 c -0.0088,0.0152 -0.01672,0.0319 -0.02376,0.0475 0.0033,-0.005 0.0066,-0.01 0.0098,-0.0145 0.0046,-0.007 0.0118,-0.0259 0.01394,-0.0331 z m -5.95054,4.73614 c -0.116409,0.11538 -0.236607,0.22733 -0.36122,0.33383 -0.287925,0.24312 -0.587232,0.47179 -0.890384,0.69557 -0.06715,0.0506 -0.134363,0.10104 -0.202054,0.15089 0.0067,0.0118 0.01312,0.0238 0.01963,0.0362 0.03891,0.074 0.07802,0.14793 0.117306,0.22169 0.0096,-0.0266 0.02013,-0.053 0.03152,-0.0791 0.05985,-0.11942 0.07176,-0.15505 0.151413,-0.2651 0.100434,-0.13878 0.230384,-0.25149 0.359151,-0.36277 0.192694,-0.15912 0.385914,-0.31799 0.563274,-0.49454 0.06046,-0.062 0.102569,-0.10268 0.158129,-0.16898 0.01847,-0.022 0.03617,-0.0447 0.05323,-0.0677 z m 0.448035,0.10077 -5.3e-4,5.3e-4 -5.29e-4,5.3e-4 -5.29e-4,5.3e-4 v 5.3e-4 c 0.0037,0.0176 0.01074,0.0339 0.01601,0.0512 -5.29e-4,-0.003 -0.0011,-0.006 -0.0016,-0.009 -0.0021,-0.0131 -0.0046,-0.0261 -0.0088,-0.0387 v -5.3e-4 h -5.3e-4 v -5.3e-4 l -0.0016,-0.003 -5.29e-4,-5.3e-4 -5.29e-4,-5.3e-4 h -5.3e-4 z m -2.580204,1.86035 c -0.01839,0.0144 -0.03773,0.0287 -0.05788,0.0429 -0.189942,0.13343 -0.385665,0.25784 -0.58756,0.37259 -0.393446,0.22345 -0.791573,0.44295 -1.157034,0.71107 -0.04202,0.0341 -0.08488,0.0674 -0.126608,0.1018 0.0218,-0.0111 0.0438,-0.0221 0.06563,-0.0331 0.218249,-0.11233 0.43579,-0.22488 0.648023,-0.3483 0.142594,-0.0854 0.292073,-0.16265 0.428916,-0.25735 0.142912,-0.0958 0.292888,-0.1794 0.441833,-0.2651 0.07346,-0.0426 0.03891,-0.0219 0.103354,-0.0625 0.108675,-0.0685 0.211902,-0.11263 0.307472,-0.13694 -0.02214,-0.0415 -0.04411,-0.0834 -0.06614,-0.12506 z m -0.234095,3.24373 c -0.0024,7.9e-4 -0.0049,0.002 -0.0072,0.003 -0.0045,0.002 -0.01241,0.002 -0.01707,0.004 h -5.29e-4 -5.29e-4 -5.3e-4 v 5.3e-4 0.001 l -5.29e-4,5.3e-4 -5.29e-4,5.3e-4 -5.29e-4,5.3e-4 v 5.3e-4 5.3e-4 5.3e-4 l -5.29e-4,5.3e-4 v 5.3e-4 5.2e-4 l 5.29e-4,5.3e-4 v 5.3e-4 5.3e-4 h 5.29e-4 l 5.29e-4,5.3e-4 h 5.29e-4 5.3e-4 c 0.0048,-2.6e-4 0.01458,-0.006 0.0186,-0.009 0.0021,-0.002 0.0044,-0.004 0.0067,-0.006 z m 0.409794,0.54261 v 5.3e-4 5.3e-4 c 0.03471,0.0271 0.06833,0.0557 0.101285,0.0848 -0.0037,-0.005 -0.0073,-0.009 -0.01085,-0.0129 -0.01058,-0.0125 -0.02429,-0.0227 -0.03359,-0.0362 v -5.3e-4 -5.3e-4 -5.3e-4 -5.3e-4 c 3.9e-5,-1.2e-4 2.38e-4,-0.001 5.29e-4,-0.002 v -5.3e-4 c 5.29e-4,-10e-4 0.0016,-0.003 0.0021,-0.004 v -5.3e-4 h 5.29e-4 v -5.3e-4 -5.3e-4 h -5.29e-4 v -5.3e-4 l -5.3e-4,-5.3e-4 c -0.0056,-0.003 -0.0302,-0.0136 -0.05891,-0.0253 z m 4.823995,3.68349 c 0.0087,0.0269 0.01188,0.0409 0.01394,0.0444 v 5.3e-4 h 5.29e-4 5.3e-4 5.29e-4 v -5.3e-4 c 0.0011,-0.002 0.0021,-0.007 0.0041,-0.0129 -0.007,-0.0102 -0.01318,-0.0208 -0.01963,-0.0315 z m -4.439005,2.27945 c 0.01553,0.0266 0.03154,0.0529 0.04806,0.0791 0.09392,0.16625 0.19621,0.32767 0.297654,0.48938 0.08376,0.12379 0.175233,0.24217 0.274402,0.35398 -0.01233,-0.0193 -0.02439,-0.0385 -0.03669,-0.0579 -0.109858,-0.17287 -0.19721,-0.35787 -0.272852,-0.54777 -0.02024,-0.0471 -0.03978,-0.0945 -0.05839,-0.14211 -0.08337,-0.0589 -0.17072,-0.12303 -0.25218,-0.17467 z m 1.313098,1.43815 c -0.0024,0.0122 -0.0029,0.024 -0.0016,0.0351 5.29e-4,-0.002 0.0016,-0.005 0.0021,-0.006 -2.6e-5,-0.01 -1.93e-4,-0.0193 -5.29e-4,-0.0289 z m 3.424079,0.64286 c -0.01254,5.3e-4 -0.02678,0.008 -0.04082,0.0181 0.01071,-0.003 0.02103,-0.006 0.03204,-0.0119 0.0019,-0.001 0.0062,-0.003 0.0083,-0.005 l 5.29e-4,-5.3e-4 5.29e-4,-5.3e-4 v -5.3e-4 z m -2.896981,0.0119 c -0.0241,0.0352 -0.03193,0.0555 -0.031,0.0631 l 5.29e-4,5.3e-4 c 3.7e-5,1e-4 2.38e-4,10e-4 5.29e-4,0.002 v 5.3e-4 5.3e-4 h 5.29e-4 v 5.2e-4 h 5.3e-4 5.29e-4 5.29e-4 5.29e-4 5.29e-4 5.29e-4 c 0.0057,-0.003 0.01535,-0.0163 0.02016,-0.0372 0.0024,-0.01 0.0044,-0.0201 0.0062,-0.03 z m 2.78071,0.22273 c 0.0019,0.0372 0.0034,0.0519 0.0041,0.0537 l 5.29e-4,-5.3e-4 c 5.3e-4,-0.007 -0.0011,-0.0403 -0.0047,-0.0532 z" /></clipPath><clipPath
       clipPathUnits="userSpaceOnUse"
       id="clipPath235"><path
         id="path236"
         style="fill:#ff0000;fill-opacity:1;fill-rule:nonzero;stroke:none;stroke-width:0.264583"
         d="m 37.572857,60.907402 v 99.744818 h 46.016312 c -0.245817,-0.29345 -0.422045,-0.64158 -0.572056,-1.06195 -1.36984,0.59715 -3.083459,-0.46399 -3.187919,-3.16312 -0.252132,0.12155 -0.579811,-0.0811 -0.579811,-0.60823 v -0.4315 h -5.29e-4 l -5.29e-4,5.3e-4 h -5.29e-4 c -0.01611,0.0614 -0.03283,0.1224 -0.05013,0.18345 -0.225142,0.795 -0.988996,0.57134 -0.841293,-0.18707 -0.02987,-0.02 -0.058,-0.0453 -0.08371,-0.0754 -0.08534,0.0251 -0.175966,0.0156 -0.257349,-0.0289 -0.4781,0.92976 -1.728571,0.62664 -1.749764,-0.90899 -0.0041,-0.30056 0.01611,-0.60068 0.031,-0.90072 0.01101,-0.34259 0.02455,-0.68398 0.05736,-1.02526 0.0419,-0.40447 0.06253,-0.81024 0.07803,-1.21646 0.0149,-0.44651 0.01921,-0.89326 0.02222,-1.33997 -0.0027,-0.56961 0.01971,-1.1391 0.03411,-1.70843 -0.01783,-0.79237 -0.08831,-1.58249 -0.129709,-2.37401 -0.0432,-0.85876 -0.0606,-1.71849 -0.0739,-2.57814 0.0036,-0.76517 -0.04211,-1.52925 -0.07441,-2.2934 -0.0353,-0.87133 -0.04736,-1.74342 -0.05736,-2.61534 -0.0091,-0.90504 -0.01143,-1.81 -0.01344,-2.71508 -0.0013,-0.82661 -0.0016,-1.65334 -0.0021,-2.47996 -1.95e-4,-0.52659 6.1e-5,-1.05314 0,-1.57974 -1.5e-5,-0.2161 1.4e-5,-0.43193 0,-0.64803 -5e-5,-0.9566 0.482682,-1.43503 0.965833,-1.43505 0.483161,-2e-5 0.966311,0.47845 0.966351,1.43505 1e-5,0.21605 5.29e-4,0.43197 5.29e-4,0.64803 2e-6,0.0127 0,0.0255 0,0.0382 0.164473,0.008 0.353367,0.12606 0.500745,0.39015 0.04955,0.0888 0.100753,0.17656 0.153995,0.26304 0.04315,-0.002 0.08764,-0.002 0.133327,-0.001 0.104859,0.003 0.216275,0.0131 0.334346,0.032 0.97954,0.15679 1.953649,0.34878 2.925918,0.54519 1.875311,0.37883 1.49233,2.27359 -0.382921,1.89446 -0.458837,-0.0928 -0.918226,-0.18355 -1.378212,-0.27079 0.0036,0.0211 0.0061,0.0421 0.0057,0.0636 -0.0016,0.0849 -0.01945,0.16882 -0.02946,0.25322 -0.1181,0.099 -0.211569,0.23954 -0.354502,0.29714 -0.220168,0.0888 -0.472239,-0.15178 -0.627867,-0.33332 -0.0076,0.0192 -0.0154,0.0387 -0.02429,0.0574 -0.02297,0.0483 -0.04886,0.0947 -0.07648,0.14056 0.04103,0.0775 0.0912,0.16793 0.153995,0.27233 0.0042,0.007 -0.140319,0.27176 -0.182417,0.36277 -0.100433,0.26183 -0.214463,0.52027 -0.40876,0.7276 -0.03929,0.0419 -0.08357,0.0785 -0.125574,0.11783 -0.145661,0.10747 -0.399735,0.29219 -0.612883,0.26303 0.0019,0.54674 0.0049,1.09343 0.01035,1.64021 0.0093,0.85175 0.02193,1.70371 0.05633,2.55488 0.0331,0.78141 0.07897,1.56263 0.07597,2.34508 0.01291,0.83602 0.02952,1.67218 0.07131,2.50734 0.0438,0.84128 0.122259,1.68133 0.13126,2.52387 -0.0036,0.14151 -0.0078,0.28277 -0.01188,0.42427 0.038,0.0224 0.07374,0.053 0.10542,0.0909 0.02183,-0.12941 0.05269,-0.31237 0.10077,-0.5979 0.01082,-0.0643 0.02564,-0.12275 0.04393,-0.1757 -0.02712,-0.39346 0.171077,-0.60777 0.386022,-0.61236 0.13444,-0.003 0.2755,0.0764 0.372586,0.24494 0.06268,-0.39704 0.142404,-0.78427 0.2589,-1.16943 0.131392,-0.41771 0.288293,-0.82593 0.464055,-1.22629 0.03163,-0.14719 0.06352,-0.29431 0.09612,-0.44131 0.308139,-1.43119 0.629888,-2.85946 0.958599,-4.28605 0.20737,-0.90707 0.394443,-1.81848 0.604612,-2.72489 h 5.3e-4 c 0.08467,-0.36515 0.291679,-0.52788 0.482139,-0.52555 0.244869,0.003 0.461994,0.2791 0.353984,0.74879 -0.20619,0.8967 -0.39246,1.79793 -0.597379,2.69492 -0.130974,0.56846 -0.260715,1.13732 -0.389126,1.70636 0.08627,-0.13212 0.176999,-0.26122 0.275953,-0.38447 0.1852,-0.23071 0.280508,-0.31685 0.487825,-0.5271 0.354055,-0.34059 0.740746,-0.64198 1.139984,-0.92656 0.864497,-1.13447 1.750171,-2.26147 2.793111,-3.23856 0.117621,-0.1017 0.232452,-0.20598 0.352433,-0.30489 0.23464,-0.19341 0.484743,-0.36828 0.737423,-0.53692 0.15589,-0.10405 0.300614,-0.15096 0.424265,-0.15555 0.441589,-0.0164 0.61332,0.50495 0.05581,0.8754 -0.236101,0.15688 -0.469143,0.32097 -0.687813,0.50178 -0.107379,0.0888 -0.210106,0.18291 -0.315225,0.2744 -0.410816,0.38804 -0.796412,0.79988 -1.165823,1.22628 0.120161,-0.0676 0.24062,-0.13473 0.36122,-0.20154 0.26579,-0.14354 0.135697,-0.0751 0.390157,-0.2067 0.14269,-0.0738 0.272571,-0.10634 0.384471,-0.10852 0.17511,-0.003 0.30634,0.0685 0.373105,0.17673 0.0784,-0.0449 0.151683,-0.0982 0.225309,-0.15038 0.17472,-0.12391 0.335148,-0.1728 0.466637,-0.16846 0.394462,0.013 0.529112,0.50544 0.01344,0.88883 -0.06458,0.048 -0.13154,0.0924 -0.199985,0.13436 0.22429,-0.0338 0.438965,-0.0568 0.647504,-0.0698 0.06728,-0.004 0.133842,-0.007 0.199988,-0.009 0.792094,-1.43328 1.839725,-2.06579 2.755905,-2.08928 1.464138,-0.0375 2.593348,1.48046 1.809192,3.77238 0.109911,0.11181 0.212945,0.22998 0.309542,0.35605 0.741939,-0.73474 1.63041,-1.17918 2.911451,-1.41543 0.868471,-0.0344 1.729306,0.007 2.530078,0.23514 V 60.907402 Z M 97.109274,144.1261 c -0.009,7.9e-4 -0.0199,0.007 -0.03307,0.0196 -0.08349,0.0792 -0.02125,0.26585 0.03204,0.39326 0.03739,-0.21616 0.05504,-0.41712 0.0011,-0.41289 z m -0.233577,0.82734 c -0.04906,0.003 -0.09832,0.0104 -0.146759,0.0238 0.0277,0.0111 0.0792,0.003 0.0832,0.0331 0.009,0.0661 -0.109376,0.0862 -0.134876,0.14779 -0.0067,0.0164 0.01416,0.0348 0.0098,0.0522 -0.01238,0.0597 -0.132011,0.29144 -0.13901,0.30644 -0.06019,0.23808 -0.100234,0.48084 -0.128156,0.72605 0.195152,-0.42196 0.388602,-0.8451 0.580843,-1.26814 -0.0093,0.0493 -0.01304,0.0751 -0.01241,0.0816 v 5.3e-4 l 5.29e-4,5.3e-4 v 5.3e-4 h 5.29e-4 v -5.3e-4 h 5.29e-4 c 0.0041,-0.006 0.01574,-0.0444 0.03049,-0.10284 -0.04672,-0.003 -0.09563,-0.004 -0.144696,-0.001 z m 2.049489,7.31428 c -0.284665,0.54394 -0.577315,1.08365 -0.880049,1.61799 -1.1806,2.02659 -2.310347,4.14165 -4.034896,5.7676 -0.454096,0.35436 -0.923139,0.68429 -1.4025,0.99891 h 6.317445 z" /></clipPath><clipPath
       clipPathUnits="userSpaceOnUse"
       id="clipPath238"><path
         id="path239"
         style="fill:#ff0000;fill-opacity:1;fill-rule:nonzero;stroke:none;stroke-width:0.264583"
         d="M 81.837898,76.884197 V 176.89256 h 46.230772 c 0.002,-0.011 0.004,-0.0221 0.006,-0.0331 -0.36709,-0.33743 -0.60079,-0.75656 -0.7922,-1.29295 -1.36986,0.59717 -3.0835,-0.4639 -3.18792,-3.16311 -0.25217,0.12186 -0.58033,-0.0808 -0.58033,-0.60823 v -0.55914 -0.0801 c -0.002,0.008 -0.004,0.0152 -0.006,0.0227 -0.19352,0.72696 -0.85113,0.62513 -0.86403,0.0279 -0.11335,0.093 -0.24972,0.11154 -0.3669,0.0558 -0.48056,0.92189 -1.72552,0.61688 -1.74666,-0.91519 -0.004,-0.30056 0.0161,-0.60068 0.031,-0.90072 0.011,-0.34259 0.0246,-0.68398 0.0574,-1.02526 0.0419,-0.40447 0.0625,-0.81024 0.078,-1.21646 0.0149,-0.44651 0.0192,-0.89326 0.0222,-1.33997 -0.003,-0.56961 0.0197,-1.13909 0.0341,-1.70842 -0.0178,-0.79237 -0.0883,-1.5825 -0.12969,-2.37402 -0.0432,-0.85876 -0.0606,-1.71848 -0.0739,-2.57813 0.004,-0.76517 -0.0421,-1.52925 -0.0744,-2.2934 -0.0353,-0.87133 -0.0474,-1.74343 -0.0574,-2.61535 -0.009,-0.90504 -0.0114,-1.81 -0.0134,-2.71508 -10e-4,-0.82661 -0.002,-1.65333 -0.002,-2.47995 -2e-4,-0.52659 6e-5,-1.05315 0,-1.57975 -2e-5,-0.2161 1e-5,-0.43192 0,-0.64802 -5e-5,-0.9566 0.48268,-1.43504 0.96583,-1.43506 0.48316,-2e-5 0.96631,0.47846 0.96635,1.43506 10e-6,0.21605 5.3e-4,0.43196 5.3e-4,0.64802 v 0.15865 c 0.0676,0.043 0.13641,0.10099 0.20412,0.17621 0.0505,0.0561 0.10199,0.11123 0.154,0.16589 0.1228,0.009 0.26437,0.0578 0.41496,0.15968 0.0152,0.0103 0.0304,0.0206 0.0455,0.031 0.0959,0.004 0.19718,0.0139 0.30386,0.031 0.97954,0.15679 1.95365,0.34877 2.92592,0.54518 1.53011,0.3091 1.55673,1.62761 0.49609,1.89653 0.064,0.0258 0.12767,0.0523 0.19069,0.0806 0.22084,0.11075 0.44026,0.22751 0.63097,0.38654 0.12249,0.0996 0.24132,0.20322 0.35553,0.31161 0.24121,0.0191 0.48235,0.0483 0.709,0.13901 0.29413,0.1267 0.57656,0.29831 0.74569,0.5824 0.0476,0.0799 0.0764,0.16903 0.11473,0.25373 0.0159,0.0923 0.0421,0.18348 0.0481,0.27698 0.006,0.0876 0.003,0.17559 -0.007,0.26304 v 5.3e-4 h 5.3e-4 l 5.3e-4,5.3e-4 5.2e-4,5.3e-4 h 5.3e-4 5.3e-4 0.001 l 5.3e-4,5.2e-4 c 0.19724,0.13317 0.39494,0.26684 0.56793,0.43151 0.1313,0.13017 0.24774,0.24702 0.26044,0.45526 0.004,0.0575 -0.002,0.10858 -0.016,0.15503 0.10055,-0.0333 0.21081,-0.0602 0.30902,-0.0584 0.0824,0.002 0.15674,0.0238 0.20981,0.0801 0.11249,0.11925 0.14012,0.29629 0.21032,0.44442 -0.0103,0.0546 -0.0262,0.10577 -0.0455,0.15399 0.16616,0.002 0.29058,0.0722 0.35502,0.17674 0.0784,-0.0449 0.15221,-0.0982 0.22583,-0.15039 0.17474,-0.12391 0.33515,-0.17277 0.46664,-0.16846 0.39444,0.013 0.5288,0.50546 0.0129,0.88883 -0.0646,0.048 -0.13104,0.0925 -0.19947,0.13437 0.22442,-0.0339 0.43886,-0.0569 0.64751,-0.0698 0.0672,-0.004 0.13342,-0.007 0.19947,-0.009 0.79211,-1.43324 1.83973,-2.06579 2.7559,-2.08928 1.46412,-0.0375 2.59323,1.48007 1.8092,3.77186 0.10999,0.11188 0.21339,0.23091 0.31005,0.35708 0.74194,-0.73471 1.63041,-1.17968 2.91146,-1.41593 0.96486,-0.0382 1.92003,0.0173 2.79414,0.31781 V 76.884197 Z m 45.758962,75.377313 c 0.0356,0.0267 0.0709,0.0533 0.10646,0.0801 -0.0216,-0.0242 -0.043,-0.0477 -0.0651,-0.0713 -0.0137,-0.003 -0.0276,-0.006 -0.0413,-0.009 z m -2.22415,0.30747 c 0.003,0.004 0.006,0.008 0.01,0.0114 0.0302,0.0343 0.0605,0.0688 0.0904,0.10334 -0.007,-0.0173 -0.0145,-0.0349 -0.0217,-0.0522 -0.0111,-0.009 -0.0224,-0.0175 -0.0336,-0.0264 -0.0151,-0.012 -0.0299,-0.0241 -0.045,-0.0362 z m 2.68872,1.14308 c 0.001,0.004 0.002,0.007 0.004,0.01 0.006,0.0123 0.0385,0.0382 0.0465,0.0413 l 5.3e-4,5.3e-4 h 5.3e-4 5.3e-4 v -5.3e-4 -5.3e-4 -5.3e-4 c -0.003,-0.005 -0.0177,-0.0199 -0.0517,-0.0501 z m -0.28628,0.0853 c -0.0185,0.01 -0.041,0.0138 -0.0553,0.0289 l -5.3e-4,5.3e-4 -5.3e-4,5.3e-4 v 5.3e-4 h -5.3e-4 v 5.3e-4 h -5.3e-4 v 5.3e-4 5.3e-4 l 5.3e-4,5.3e-4 h 5.3e-4 c 0.007,-5.3e-4 0.0317,-0.0118 0.0413,-0.0171 0.009,-0.005 0.0184,-0.0102 0.0274,-0.0155 -0.004,-1e-4 -0.008,1.1e-4 -0.0119,0 z m 13.59917,6.30504 c -0.009,7.9e-4 -0.0199,0.007 -0.0331,0.0196 -0.0835,0.0792 -0.0212,0.26585 0.032,0.39326 0.0374,-0.21616 0.0559,-0.41713 0.001,-0.4129 z m -0.23358,0.82734 c -0.0491,0.003 -0.0983,0.0104 -0.14676,0.0238 0.0277,0.0111 0.0792,0.003 0.0832,0.0331 0.009,0.0661 -0.10938,0.0862 -0.13488,0.14779 -0.007,0.0164 0.01,0.0348 0.01,0.0522 -0.0124,0.0597 -0.13201,0.29144 -0.13901,0.30645 -0.0602,0.23808 -0.10024,0.48084 -0.12816,0.72605 0.19515,-0.42196 0.38861,-0.8451 0.58085,-1.26814 -0.009,0.0493 -0.013,0.0751 -0.0124,0.0817 v 5.3e-4 l 5.3e-4,5.3e-4 v 5.3e-4 h 5.3e-4 v -5.3e-4 h 5.2e-4 c 0.004,-0.006 0.0157,-0.0444 0.0305,-0.10283 -0.0467,-0.003 -0.0956,-0.004 -0.14469,-10e-4 z m 2.31355,6.80372 c -0.36721,0.71703 -0.74689,1.42743 -1.14411,2.12855 -1.1806,2.02659 -2.31035,4.14166 -4.0349,5.76761 -0.58264,0.45468 -1.18962,0.86968 -1.81177,1.26297 h 6.99078 z" /></clipPath></defs><g
     id="layer1"><path
       id="rect1-8-9-2"
       clip-path="url(#clipPath216)"
       style="display:inline;fill:url(#radialGradient914-2-9);stroke:url(#radialGradient913-9-7);stroke-width:0.239181;stroke-dasharray:0.239181, 0.239181"
       d="m 125.48691,82.79908 c -2.49534,-8.54e-4 -3.6304,5.777023 -3.64163,8.385018 l -0.0222,5.054472 -0.0196,17.79736 c 0,0 -0.007,5.93246 -0.01,8.89869 -0.004,2.96622 0.0411,5.98737 -1.21646,8.6465 -1.19644,2.52984 -3.08024,3.68528 -5.22346,5.40173 -2.14323,1.71644 -6.42958,5.14904 -6.42958,5.14904 l -11.871109,9.50743 c 0.01085,0.008 0.02171,0.0158 0.03204,0.0243 0.04717,0.0386 0.08516,0.0892 0.113688,0.14314 0.09682,0.18298 0.114349,0.29602 0.100769,0.49972 -0.01209,0.18144 -0.0602,0.25685 -0.129191,0.42633 -0.131625,0.23709 -0.30748,0.44476 -0.514697,0.61908 -0.110411,0.0929 -0.166789,0.12692 -0.28422,0.20722 -0.222692,0.15187 -0.466941,0.26508 -0.706934,0.38551 -0.1509,0.0855 -0.302976,0.16957 -0.446484,0.26717 -0.170353,0.12616 -0.341942,0.25065 -0.511597,0.37775 -0.07697,0.0583 -0.154281,0.11984 -0.215491,0.19534 -0.0356,0.044 -0.06627,0.0919 -0.09973,0.13746 -0.158722,0.22272 -0.304464,0.4539 -0.450102,0.68523 -0.142738,0.22175 -0.28417,0.4446 -0.432015,0.663 -0.179634,0.26147 -0.374028,0.51141 -0.569991,0.76068 -0.182912,0.22518 -0.364433,0.45106 -0.56379,0.66198 -0.143365,0.15019 -0.304574,0.28154 -0.451135,0.42839 -0.0573,0.0574 -0.172503,0.1815 -0.224793,0.2372 -0.25137,0.26265 -0.513259,0.51498 -0.783931,0.75758 -0.275509,0.25 -0.56439,0.48361 -0.859379,0.71003 -0.279811,0.19951 -0.560859,0.3968 -0.833024,0.60668 -0.340104,0.25475 -0.677685,0.51303 -1.028878,0.75241 -0.235567,0.17093 -0.481829,0.32594 -0.719336,0.49403 -0.161575,0.11743 -0.314294,0.24651 -0.465605,0.37672 -0.06997,0.0594 -0.137506,0.1213 -0.202055,0.18603 h 0.266134 c 0.38802,0.003 0.776399,-0.0101 1.163753,0.0196 0.0892,0.007 0.178128,0.0171 0.267168,0.0264 0.254284,0.0355 0.507072,0.0837 0.757059,0.14211 0.08888,0.0208 0.288879,0.0714 0.380339,0.10231 0.06444,0.0218 0.127176,0.0485 0.190686,0.0729 0.222659,0.10328 0.429975,0.24299 0.607198,0.41341 0.118585,0.11404 0.160787,0.1718 0.267684,0.29972 0.293544,0.38011 0.543979,0.79011 0.770495,1.21285 0.163899,0.30685 0.305169,0.62599 0.409795,0.95808 0.07402,0.23492 0.08623,0.30887 0.141593,0.5488 0.08917,0.46521 0.134806,0.94428 0.07441,1.41646 -0.01134,0.0887 -0.03027,0.17648 -0.04547,0.26458 -0.09233,0.35091 -0.201333,0.712 -0.408761,1.01492 -0.03682,0.0538 -0.08037,0.10312 -0.120406,0.15452 -0.154745,0.16468 -0.332807,0.30614 -0.538468,0.40204 -0.100094,0.0466 -0.146418,0.0602 -0.229444,0.0842 0.139681,0.21108 0.283856,0.41884 0.425814,0.62839 0.116323,0.1637 0.230166,0.32968 0.364319,0.47955 0.125415,0.14011 0.139039,0.14859 0.278536,0.28526 0.683313,0.6694 0.0022,1.36149 -0.677995,0.68884 -0.158102,-0.15635 -0.195529,-0.18754 -0.337964,-0.34933 -0.155809,-0.17698 -0.291641,-0.36942 -0.426847,-0.56224 -0.160091,-0.23641 -0.323342,-0.47049 -0.479557,-0.70951 -0.158193,-0.23924 -0.318565,-0.47914 -0.513664,-0.6904 -0.0114,-0.0119 -0.02117,-0.0222 -0.02997,-0.0315 -0.484645,-0.22877 -0.953041,-0.48942 -1.406633,-0.77463 -0.15998,-0.10075 -0.316359,-0.20781 -0.466121,-0.32298 0.09878,0.23505 0.19832,0.46974 0.298173,0.70435 0.04279,0.0987 0.08573,0.19721 0.129191,0.29559 0.02563,0.03 0.05196,0.0596 0.07855,0.0889 0.134639,0.15322 0.269124,0.30654 0.387056,0.47336 0.130271,0.17519 0.263421,0.34795 0.380856,0.53226 0.139988,0.22264 0.276555,0.44791 0.417029,0.67025 0.150913,0.23731 0.298295,0.47777 0.474389,0.69763 0.124501,0.15376 0.26153,0.29729 0.414445,0.42323 0.132274,0.10963 0.264002,0.22012 0.398425,0.32711 0.1006,0.0739 0.207986,0.13744 0.311093,0.20774 0.104139,0.0704 0.212405,0.13567 0.322461,0.19637 0.132059,0.0598 0.264637,0.11788 0.401525,0.16588 0.146231,0.0574 0.285629,0.12707 0.427881,0.19327 0.110642,0.0535 0.235989,0.0666 0.351917,0.10594 0.120494,0.032 0.243958,0.051 0.366386,0.0739 0.09646,0.0189 0.196119,0.0199 0.294039,0.0202 0.135237,-0.001 0.270478,-0.002 0.40566,-0.006 0.116005,-0.004 0.231401,-0.0121 0.347265,-0.0191 0.142246,-0.004 0.284777,-4.8e-4 0.426848,0.008 0.183922,0.0118 0.368473,0.0279 0.548286,0.0703 0.130361,0.0391 0.181263,0.0452 0.304375,0.13022 0.03531,0.0244 0.06958,0.0546 0.100769,0.0884 l 15.994368,-12.1357 c 0,0 17.87632,-11.74029 22.19245,-20.71604 4.31614,-8.97574 3.34015,-14.6269 3.35018,-23.2482 0.0101,-8.71284 -0.10645,-26.138454 -0.10645,-26.138454 -0.0106,-2.607994 -0.9706,-8.423439 -3.46594,-8.424292 z m -28.779118,69.63761 c -0.0039,3.8e-4 -0.0093,0.001 -0.01188,0.002 -0.01172,0.003 -0.02312,0.007 -0.03462,0.0103 0.01321,-8.1e-4 0.02695,-0.004 0.05064,-0.0114 h 5.17e-4 5.17e-4 v -5.2e-4 h -5.17e-4 c -8.45e-4,-8e-5 -0.0027,-1.9e-4 -0.0047,0 z m -5.152657,3.57549 -5.50199,4.36873 c 0.0022,0.001 0.0045,0.002 0.0067,0.003 0.02237,0.0481 0.04745,0.0952 0.07183,0.14263 0.01034,-0.003 0.02066,-0.006 0.03101,-0.008 0.177661,-0.13844 0.353749,-0.27864 0.530201,-0.41857 0.362724,-0.28594 0.722324,-0.57547 1.089856,-0.85525 0.4115,-0.29782 0.831987,-0.58289 1.244368,-0.87953 0.289976,-0.21011 0.57151,-0.43147 0.852661,-0.65319 0.26279,-0.22733 0.516606,-0.46535 0.766878,-0.70642 0.273559,-0.25616 0.520531,-0.53807 0.764812,-0.82165 0.04784,-0.0574 0.09591,-0.11468 0.14366,-0.17209 z m -7.692554,6.10867 -0.630452,0.50023 c -0.843038,0.66943 -0.826287,1.06603 -0.440283,1.47795 0.05553,-0.14439 0.115686,-0.28707 0.178283,-0.4284 0.221015,-0.46651 0.481741,-0.9126 0.75861,-1.34772 0.04422,-0.0675 0.08911,-0.13489 0.133842,-0.20206 z m 2.642733,1.08831 c 0.0077,0.0487 0.01707,0.0974 0.02532,0.14624 0.02498,0.14917 0.06435,0.29577 0.09715,0.44339 0.05454,0.15844 0.127005,0.3087 0.200505,0.45888 0.0644,0.13525 0.127693,0.27108 0.210323,0.39636 0.0996,0.14876 0.191193,0.30219 0.282153,0.45631 0.107928,0.18485 0.213751,0.37084 0.303341,0.56534 0.08388,0.18446 0.159278,0.37225 0.220658,0.56534 0.05948,0.19682 0.109763,0.3959 0.157613,0.59582 0.02736,0.12235 0.05639,0.24798 0.117306,0.35864 0.11136,0.13603 0.25898,0.22866 0.405143,0.32246 0.23357,0.14567 0.485005,0.25874 0.733289,0.3762 0.224256,0.11898 0.450968,0.24139 0.646472,0.40515 0.110034,0.048 0.130549,0.0577 0.275435,0.10748 0.0821,0.0282 0.168432,0.0644 0.256832,0.0574 0.138951,-0.0348 0.232694,-0.0844 0.340548,-0.18191 0.04613,-0.0522 0.06971,-0.0739 0.104903,-0.13745 0.103021,-0.18587 0.166526,-0.39264 0.224276,-0.59583 0.01144,-0.0601 0.02602,-0.11975 0.03462,-0.18035 0.05275,-0.3708 0.01242,-0.74815 -0.05426,-1.11415 -0.04289,-0.19002 -0.0558,-0.26399 -0.113172,-0.44907 -0.08801,-0.28392 -0.207846,-0.55632 -0.348299,-0.81803 -0.194766,-0.36626 -0.412097,-0.72034 -0.662492,-1.05162 -0.04021,-0.0491 -0.113587,-0.14254 -0.163297,-0.19224 -0.09475,-0.0947 -0.205143,-0.17564 -0.322978,-0.23874 -0.338743,-0.14164 -0.710024,-0.18845 -1.068669,-0.25425 -0.07471,-0.008 -0.149405,-0.0167 -0.224275,-0.0227 -0.369512,-0.0293 -0.740359,-0.0156 -1.110527,-0.0186 z" /><path
       id="rect1-8-91"
       style="display:inline;fill:url(#radialGradient914-3);stroke:url(#radialGradient913-6);stroke-width:0.264999;stroke-dasharray:0.264999, 0.264999"
       d="m 41.719549,60.910222 8.557625,-0.0028 c 2.826424,-9.25e-4 4.112201,6.26071 4.124925,9.087105 l 0.02466,5.47817 0.02249,19.287767 c 0,0 0.0075,6.429256 0.01124,9.643886 0.0037,3.21462 -0.04663,6.48876 1.377809,9.37057 1.355187,2.7417 3.48862,3.99368 5.916212,5.85387 2.427592,1.86018 7.282775,5.58055 7.282775,5.58055 l 14.565552,11.16111 14.53546,11.04354 c 2.250543,1.70989 -0.909786,1.77745 -2.201692,4.29134 l -3.479708,6.77108 c -1.291907,2.51389 -4.838575,2.79187 -7.125845,1.13141 L 66.604791,146.01333 c 0,0 -20.248238,-12.72365 -25.137038,-22.45105 -4.888799,-9.7274 -3.783689,-15.85146 -3.795045,-25.194738 -0.01148,-9.442476 0.120632,-28.327191 0.120632,-28.327191 0.01204,-2.826394 1.099787,-9.129204 3.926209,-9.130129 z"
       mask="url(#mask917-0)"
       transform="matrix(-0.88286127,0,0,0.92272816,169.7576,26.475478)"
       clip-path="url(#clipPath184)" /><path
       id="rect1-8-9"
       style="display:inline;fill:url(#radialGradient914-2);stroke:url(#radialGradient913-9);stroke-width:0.264999;stroke-dasharray:0.264999, 0.264999"
       d="m 86.116399,77.019677 8.557625,-0.0028 c 2.826424,-9.25e-4 4.112201,6.26071 4.124925,9.087105 l 0.02466,5.47817 0.02249,19.287758 c 0,0 0.0075,6.42926 0.01124,9.64389 0.0037,3.21462 -0.04663,6.48876 1.377811,9.37057 1.35519,2.7417 3.48862,3.99368 5.91621,5.85387 2.4276,1.86018 7.28278,5.58055 7.28278,5.58055 l 14.56555,11.16111 14.53546,11.04354 c 2.25054,1.70989 -0.90979,1.77745 -2.20169,4.29134 l -3.47971,6.77108 c -1.29191,2.51389 -4.83857,2.79187 -7.12584,1.13141 l -18.72627,-13.59449 c 0,0 -20.248237,-12.72365 -25.137037,-22.45105 -4.888799,-9.7274 -3.783689,-15.85146 -3.795045,-25.19474 -0.01148,-9.44247 0.120632,-28.327184 0.120632,-28.327184 0.01204,-2.826394 1.099787,-9.129204 3.926209,-9.130129 z"
       clip-path="url(#clipPath238)" /><path
       id="rect1-8"
       style="display:inline;fill:url(#radialGradient914);stroke:url(#radialGradient913);stroke-width:0.264999;stroke-dasharray:0.264999, 0.264999"
       d="m 41.719549,60.910222 8.557625,-0.0028 c 2.826424,-9.25e-4 4.112201,6.26071 4.124925,9.087105 l 0.02466,5.47817 0.02249,19.287767 c 0,0 0.0075,6.429256 0.01124,9.643886 0.0037,3.21462 -0.04663,6.48876 1.377809,9.37057 1.355187,2.7417 3.48862,3.99368 5.916212,5.85387 2.427592,1.86018 7.282775,5.58055 7.282775,5.58055 l 14.565552,11.16111 14.53546,11.04354 c 2.250543,1.70989 -0.909786,1.77745 -2.201692,4.29134 l -3.479708,6.77108 c -1.291907,2.51389 -4.838575,2.79187 -7.125845,1.13141 L 66.604791,146.01333 c 0,0 -20.248238,-12.72365 -25.137038,-22.45105 -4.888799,-9.7274 -3.783689,-15.85146 -3.795045,-25.194738 -0.01148,-9.442476 0.120632,-28.327191 0.120632,-28.327191 0.01204,-2.826394 1.099787,-9.129204 3.926209,-9.130129 z"
       mask="url(#mask917)"
       transform="translate(44.265041,15.976276)"
       clip-path="url(#clipPath235)" /><rect
       style="display:inline;fill:url(#radialGradient905-2);fill-opacity:1;stroke:#8fd3f0;stroke-width:0.23889;stroke-dasharray:0.23889, 0.23889;stroke-opacity:0"
       id="rect1-3"
       width="22.986088"
       height="114.92017"
       x="98.183464"
       y="141.45027"
       ry="3.0996139"
       rx="0" /><rect
       style="display:inline;fill:url(#radialGradient905);fill-opacity:1;stroke:#8fd3f0;stroke-width:0.264999;stroke-dasharray:0.264999, 0.264999;stroke-opacity:0"
       id="rect1"
       width="26.731291"
       height="121.59944"
       x="77.666496"
       y="141.32755"
       ry="3.2797666"
       rx="0"
       mask="url(#mask905)"
       transform="matrix(0.85989438,0,0,0.94507155,31.284959,7.7599639)" /><path
       style="fill:#e5e5e5;fill-opacity:1;stroke:#ffffff;stroke-width:0.256;stroke-opacity:0"
       d="m 106.77424,136.33758 -2.41427,-1.82209 c -0.12147,0.0607 -0.24711,0.11378 -0.36441,0.18221 -0.11583,0.0676 -0.6756,0.55157 -0.77439,0.68329 -0.0328,0.0438 -0.0524,0.0979 -0.0911,0.13665 -0.0774,0.0774 -0.18919,0.11211 -0.27331,0.18221 -0.066,0.055 -0.11074,0.13456 -0.18221,0.18221 -0.13312,0.0888 -0.31399,0.17896 -0.45552,0.27331 -0.13567,0.0905 -0.20911,0.25467 -0.31886,0.36442 -0.0472,0.0472 -0.25884,0.23329 -0.31887,0.27331 -0.0565,0.0377 -0.13004,0.0476 -0.18221,0.0911 -0.0911,0.0759 -0.13772,0.19613 -0.22776,0.27331 -0.12479,0.10696 -0.28757,0.17132 -0.40997,0.27331 -0.30044,0.25038 -0.60197,0.48845 -0.91104,0.72884 -0.311488,0.24227 -0.600015,0.53247 -0.911043,0.77438 -0.139745,0.10869 -0.40688,0.25573 -0.546626,0.36442 -0.18201,0.14156 -0.443075,0.49485 -0.63773,0.59218 -0.02716,0.0136 -0.06584,-0.0169 -0.0911,0 -0.179882,0.11992 -0.307274,0.30727 -0.455522,0.45552 -0.217878,0.21788 -0.510956,0.3743 -0.728834,0.59218 -0.08386,0.0838 -0.14001,0.19354 -0.227761,0.27331 -0.189643,0.1724 -0.427332,0.31526 -0.63773,0.45552 -0.135234,0.0902 -0.06038,0.10593 -0.182208,0.22776 -0.01074,0.0107 -0.03037,0 -0.04555,0 -0.03037,0.0304 -0.06534,0.0568 -0.0911,0.0911 -0.06582,0.0878 -0.111456,0.18487 -0.182208,0.27331 -0.156185,0.19523 -0.390442,0.30584 -0.546626,0.50107 -0.288406,0.36051 0.156952,-0.12996 -0.227761,0.31887 -0.215758,0.25172 -0.464917,0.47927 -0.683282,0.72883 -0.12183,0.13924 -0.227158,0.21592 -0.364417,0.31887 -0.116511,0.0874 -0.152105,0.23806 -0.273313,0.31886 -0.0565,0.0377 -0.123981,0.0562 -0.182209,0.0911 -0.103958,0.0624 -0.177578,0.20151 -0.273313,0.27331 -0.01215,0.009 -0.03481,-0.0107 -0.04555,0 -0.0846,0.0846 -0.140769,0.23187 -0.227761,0.31887 -0.118908,0.1189 -0.321813,0.20744 -0.455521,0.31886 -0.133035,0.11086 -0.158083,0.20364 -0.273313,0.31887 -0.01074,0.0107 -0.03197,-0.007 -0.04555,0 -0.109332,0.0547 -0.168186,0.21023 -0.273313,0.27331 -0.04117,0.0247 -0.09671,0.0189 -0.136657,0.0455 -0.0355,0.0237 -0.08918,0.27139 -0.136656,0.31887 -0.0087,0.34718 0.365707,0.24764 0.501049,0.41005 0.05668,0.068 0.06864,0.17108 0.136656,0.22776 0.120096,0.10008 0.282759,0.13689 0.409969,0.22776 0.08737,0.0624 0.145279,0.15902 0.227761,0.22776 0.04575,0.0381 0.226772,-9.9e-4 0.273313,0.0455 0.317217,0.31722 -0.219238,-0.0868 0.136656,0.0911 0.206754,0.10338 0.157728,0.40997 0.364418,0.40997"
       id="path218" /><path
       style="fill:#e5e5e5;fill-opacity:1;stroke:#ffffff;stroke-width:0.256;stroke-opacity:0"
       d="m 91.240953,146.63236 c 0.262742,0.0646 0.284136,0.35418 0.455522,0.50108 0.129032,0.1106 0.305449,0.10127 0.364416,0.13666 0.05524,0.0331 0.08635,0.0964 0.136658,0.13665 0.07884,0.0631 0.266932,0.0847 0.318865,0.13666 0.03221,0.0322 -0.01439,0.0934 0,0.13665 0.02363,0.0709 0.164184,0.11012 0.182208,0.18221 0.01842,0.0737 -0.0282,0.15727 0,0.22776 0.10795,0.26988 0.0911,0.022 0.0911,0.22776"
       id="path219" /><path
       style="fill:#e5e5e5;fill-opacity:1;stroke:#ffffff;stroke-width:0.256;stroke-opacity:0"
       d="m 97.117179,151.96197 0.774388,0.77438 1.457669,-1.45766 -1.412116,-1.18436"
       id="path221" /><path
       style="display:inline;fill:#eaeaea;fill-opacity:1;stroke:#8fd3f0;stroke-width:0.16658;stroke-opacity:0"
       d="m 370.67254,577.37169 c 0,-0.20405 0.11133,-0.35868 0.25825,-0.35868 0.17569,0 0.25825,-0.17592 0.25825,-0.55027 v -0.55027 l -0.60092,0.58243 -0.60092,0.58244 -1.42538,-1.39128 -1.42538,-1.39128 1.26131,-2.90198 c 0.69372,-1.59609 1.37313,-3.16326 1.50982,-3.48259 0.20879,-0.48781 0.28978,-0.54635 0.50674,-0.36629 0.20284,0.16835 0.25823,0.16891 0.25823,0.003 0,-0.11742 0.11499,-0.16754 0.25825,-0.11257 0.19381,0.0744 0.25825,-0.0284 0.25825,-0.41199 0,-0.33953 -0.0867,-0.5111 -0.25825,-0.5111 -0.22523,0 -0.25944,-0.90802 -0.26759,-7.10183 -0.005,-3.90601 -0.0112,-8.04813 -0.0134,-9.20472 l -0.004,-2.10289 -1.36592,-1.23136 -1.36592,-1.23136 -0.74374,0.66568 c -0.40905,0.36613 -0.89236,0.78284 -1.07401,0.92603 -0.68089,0.53672 -7.50056,6.27937 -11.75366,9.89743 -1.44705,1.23098 -2.73799,2.26241 -2.86875,2.29207 -0.13357,0.0303 -0.38828,-0.24112 -0.58123,-0.61932 -0.28879,-0.56608 -0.99332,-1.24234 -1.29426,-1.24234 -0.21748,0 0.10604,0.81022 0.42954,1.07576 0.27748,0.22776 0.33904,0.41132 0.25297,0.75427 -0.11071,0.4411 -0.14699,0.41728 -1.35302,-0.88834 -1.40957,-1.52597 -1.75735,-1.97468 -1.53049,-1.97468 0.0873,0 0.38222,0.17224 0.65539,0.38277 0.36921,0.28454 0.43186,0.3016 0.24411,0.0665 -0.13891,-0.17396 -0.66385,-0.54842 -1.16654,-0.83211 -0.50269,-0.2837 -1.01769,-0.71377 -1.14446,-0.95571 -0.1344,-0.25652 -0.54265,-0.56195 -0.97932,-0.73268 -0.41187,-0.16104 -0.82417,-0.4122 -0.91623,-0.55815 -0.23692,-0.3756 0.165,-1.62739 0.56308,-1.75374 0.17294,-0.0549 0.81039,-0.60537 1.41657,-1.22329 0.60617,-0.61792 1.49744,-1.3829 1.9806,-1.69995 0.48315,-0.31704 1.04824,-0.83651 1.25576,-1.15438 0.20752,-0.31786 0.7663,-0.88783 1.24174,-1.26659 1.11358,-0.88715 5.74665,-5.49762 6.31485,-6.28404 0.23945,-0.33142 0.9848,-1.15268 1.65632,-1.82502 0.67153,-0.67234 1.56959,-1.62356 1.9957,-2.1138 0.42611,-0.49025 1.35828,-1.30523 2.07148,-1.81107 0.71321,-0.50584 1.51039,-1.19981 1.77152,-1.54217 0.26113,-0.34236 1.08206,-1.08475 1.82428,-1.64976 0.74223,-0.56501 1.60454,-1.3493 1.91625,-1.74285 0.3117,-0.39356 0.88284,-0.85416 1.2692,-1.02355 0.38635,-0.16938 1.12857,-0.74831 1.64937,-1.28651 0.5208,-0.53819 1.4505,-1.31024 2.06599,-1.71565 0.61549,-0.40542 1.58368,-1.14796 2.15153,-1.65008 1.56048,-1.37987 5.93869,-4.8641 6.68075,-5.31662 0.35992,-0.21949 0.77763,-0.58713 0.92824,-0.81698 0.1506,-0.22985 0.67585,-0.68476 1.16721,-1.01091 0.49137,-0.32616 1.21326,-0.97234 1.6042,-1.43597 0.39094,-0.46363 1.08196,-1.05787 1.5356,-1.32054 0.96809,-0.56054 1.62265,-1.11205 3.84608,-3.2406 0.90419,-0.8656 2.03715,-1.78638 2.5177,-2.04618 l 0.87373,-0.47236 4.0246,3.02222 c 2.21352,1.66222 4.25043,3.19493 4.52645,3.40601 l 0.50186,0.38379 -1.10444,0.96532 c -0.60744,0.53092 -2.00301,1.7287 -3.10126,2.66173 -4.809,4.08551 -11.05512,9.41398 -12.9875,11.07944 -1.15361,0.99426 -2.68354,2.31133 -3.39985,2.92682 l -1.30238,1.11908 0.80458,0.0481 c 1.09836,0.0657 1.44862,0.21861 0.89067,0.38883 -0.40611,0.12389 -0.39913,0.13227 0.12372,0.14846 0.42574,0.0132 0.53117,-0.0427 0.45504,-0.24108 -0.0754,-0.19655 0.0331,-0.25825 0.45423,-0.25825 0.42112,0 0.52966,0.0617 0.45424,0.25825 -0.0742,0.19343 0.0278,0.25825 0.40659,0.25825 0.37877,0 0.48082,-0.0648 0.40659,-0.25825 -0.0754,-0.19655 0.0331,-0.25825 0.45424,-0.25825 0.42112,0 0.52966,0.0617 0.45423,0.25825 -0.0742,0.19343 0.0278,0.25825 0.4066,0.25825 0.37877,0 0.48081,-0.0648 0.40659,-0.25825 -0.0754,-0.19655 0.0331,-0.25825 0.45423,-0.25825 0.42113,0 0.52966,0.0617 0.45424,0.25825 -0.0742,0.19343 0.0278,0.25825 0.40659,0.25825 0.37877,0 0.48082,-0.0648 0.40659,-0.25825 -0.0865,-0.22541 0.46149,-0.25825 4.30955,-0.25825 2.6255,0 4.40864,0.0652 4.40864,0.16126 0,0.0887 -0.25179,0.1925 -0.55954,0.23069 l -0.55954,0.0694 0.56105,0.0275 0.56104,0.0276 -0.0905,0.90386 c -0.0497,0.49713 -0.24444,2.4921 -0.43266,4.43327 -0.18822,1.94117 -0.54461,5.07888 -0.79198,6.97271 l -0.44976,3.44331 -0.64107,0.68866 c -0.35259,0.37876 -2.60189,2.85795 -4.99843,5.5093 -2.39655,2.65135 -4.84504,5.28548 -5.44108,5.85363 -0.59604,0.56815 -3.9677,4.20945 -7.49256,8.09178 -3.52487,3.88234 -6.47324,7.08462 -6.55193,7.11618 -0.0787,0.0316 -0.14308,-0.10401 -0.14308,-0.30129 z m 0.46301,-12.53939 c -0.0433,-0.16571 -0.0787,-0.0301 -0.0787,0.30129 0,0.33142 0.0354,0.467 0.0787,0.30129 0.0433,-0.16571 0.0433,-0.43687 0,-0.60258 z m 0,-1.89382 c -0.0433,-0.16571 -0.0787,-0.0301 -0.0787,0.30129 0,0.33141 0.0354,0.46699 0.0787,0.30128 0.0433,-0.1657 0.0433,-0.43687 0,-0.60257 z m 0,-1.89383 c -0.0433,-0.16571 -0.0787,-0.0301 -0.0787,0.30129 0,0.33142 0.0354,0.467 0.0787,0.30129 0.0433,-0.16571 0.0433,-0.43687 0,-0.60258 z m 0,-1.89382 c -0.0433,-0.16571 -0.0787,-0.0301 -0.0787,0.30129 0,0.33142 0.0354,0.467 0.0787,0.30129 0.0433,-0.16571 0.0433,-0.43687 0,-0.60258 z m 0,-1.89382 c -0.0433,-0.16571 -0.0787,-0.0301 -0.0787,0.30129 0,0.33142 0.0354,0.467 0.0787,0.30129 0.0433,-0.16571 0.0433,-0.43687 0,-0.60258 z m 0,-1.89382 c -0.0433,-0.16571 -0.0787,-0.0301 -0.0787,0.30129 0,0.33142 0.0354,0.467 0.0787,0.30129 0.0433,-0.16571 0.0433,-0.43687 0,-0.60258 z m 0,-1.89382 c -0.0433,-0.16571 -0.0787,-0.0301 -0.0787,0.30129 0,0.33142 0.0354,0.467 0.0787,0.30129 0.0433,-0.16571 0.0433,-0.43687 0,-0.60258 z m 0,-1.89382 c -0.0433,-0.16571 -0.0787,-0.0301 -0.0787,0.30129 0,0.33141 0.0354,0.46699 0.0787,0.30129 0.0433,-0.16571 0.0433,-0.43687 0,-0.60258 z m 0,-1.89383 c -0.0433,-0.16571 -0.0787,-0.0301 -0.0787,0.30129 0,0.33142 0.0354,0.467 0.0787,0.30129 0.0433,-0.16571 0.0433,-0.43687 0,-0.60258 z m 0,-1.89382 c -0.0433,-0.16571 -0.0787,-0.0301 -0.0787,0.30129 0,0.33142 0.0354,0.467 0.0787,0.30129 0.0433,-0.16571 0.0433,-0.43687 0,-0.60258 z m 0,-1.89382 c -0.0433,-0.16571 -0.0787,-0.0301 -0.0787,0.30129 0,0.33142 0.0354,0.467 0.0787,0.30129 0.0433,-0.16571 0.0433,-0.43687 0,-0.60258 z m 19.46516,-11.35248 c -0.16571,-0.0433 -0.43687,-0.0433 -0.60258,0 -0.16571,0.0433 -0.0301,0.0787 0.30129,0.0787 0.33142,0 0.467,-0.0354 0.30129,-0.0787 z m 1.72165,0 c -0.16571,-0.0433 -0.43687,-0.0433 -0.60258,0 -0.1657,0.0433 -0.0301,0.0787 0.30129,0.0787 0.33142,0 0.467,-0.0354 0.30129,-0.0787 z m 1.72166,0 c -0.16571,-0.0433 -0.43687,-0.0433 -0.60258,0 -0.16571,0.0433 -0.0301,0.0787 0.30129,0.0787 0.33142,0 0.467,-0.0354 0.30129,-0.0787 z m 1.72166,0 c -0.16571,-0.0433 -0.43687,-0.0433 -0.60258,0 -0.16571,0.0433 -0.0301,0.0787 0.30129,0.0787 0.33142,0 0.467,-0.0354 0.30129,-0.0787 z"
       id="path240"
       transform="scale(0.26458333)" /><path
       style="fill:#eaeaea;fill-opacity:1;stroke:#8fd3f0;stroke-width:0.16658;stroke-opacity:0"
       d="m 359.69698,566.29807 c -4.0007,-4.00283 -7.27399,-7.32396 -7.27399,-7.38031 0,-0.0563 0.78893,-0.75327 1.75318,-1.54874 0.96425,-0.79546 2.06826,-1.72314 2.45336,-2.06151 0.3851,-0.33837 1.65431,-1.41372 2.82048,-2.38967 l 2.1203,-1.77445 1.92559,1.87957 c 1.05907,1.03376 3.09817,2.98425 4.53132,4.3344 l 2.60572,2.45483 0.0261,3.87947 c 0.025,3.71057 0.0122,3.87503 -0.29423,3.77778 -0.27554,-0.0874 -0.50407,0.32617 -1.63339,2.95625 -0.72216,1.68186 -1.4137,3.0787 -1.53674,3.10408 -0.12305,0.0254 -3.49702,-3.22888 -7.49772,-7.2317 z"
       id="path241"
       transform="scale(0.26458333)" /><path
       style="fill:#eaeaea;fill-opacity:1;stroke:#8fd3f0;stroke-width:0.16658;stroke-opacity:0"
       d="m 368.86402,558.11399 c -0.94734,-0.92112 -2.97819,-2.87621 -4.51299,-4.34464 l -2.79055,-2.66987 2.07824,-1.72035 c 1.14303,-0.94619 2.16671,-1.79817 2.27483,-1.89329 0.10813,-0.0951 0.59971,-0.50603 1.09239,-0.91314 1.04041,-0.8597 1.02202,-0.8647 2.58419,0.7023 l 0.8975,0.90027 0.11264,5.81059 c 0.062,3.19583 0.0842,5.80886 0.0494,5.80674 -0.0348,-0.002 -0.83833,-0.75749 -1.78567,-1.67861 z"
       id="path242"
       transform="scale(0.26458333)" /><path
       style="fill:#eaeaea;fill-opacity:1;stroke:#8fd3f0;stroke-width:0.16658;stroke-opacity:0"
       d="m 396.05717,549.89693 c 0.20737,-1.15779 0.9521,-7.6817 1.32263,-11.58636 0.39022,-4.1122 0.40057,-4.16679 0.78949,-4.16679 0.23551,0 0.39408,0.10391 0.39408,0.25825 0,0.16068 0.1626,0.25825 0.43041,0.25825 0.26781,0 0.43042,-0.0976 0.43042,-0.25825 0,-0.16069 0.1626,-0.25825 0.43041,-0.25825 0.26781,0 0.43041,0.0976 0.43041,0.25825 0,0.16068 0.1626,0.25825 0.43042,0.25825 0.26781,0 0.43041,-0.0976 0.43041,-0.25825 0,-0.16069 0.1626,-0.25825 0.43042,-0.25825 0.26781,0 0.43041,0.0976 0.43041,0.25825 0,0.16068 0.1626,0.25825 0.43041,0.25825 0.26782,0 0.43042,-0.0976 0.43042,-0.25825 0,-0.16069 0.1626,-0.25825 0.43041,-0.25825 0.26781,0 0.43042,0.0976 0.43042,0.25825 0,0.16068 0.1626,0.25825 0.43041,0.25825 0.26781,0 0.43041,-0.0976 0.43041,-0.25825 0,-0.16352 0.16465,-0.25825 0.44884,-0.25825 0.32823,0 0.4222,0.0694 0.34973,0.25825 -0.0744,0.19381 0.0284,0.25825 0.412,0.25825 0.33952,0 0.51109,-0.0867 0.51109,-0.25825 0,-0.16352 0.16465,-0.25825 0.44883,-0.25825 0.32823,0 0.42221,0.0694 0.34974,0.25825 -0.0744,0.19381 0.0284,0.25825 0.41199,0.25825 0.33953,0 0.5111,-0.0867 0.5111,-0.25825 0,-0.16352 0.16464,-0.25825 0.44883,-0.25825 0.32823,0 0.4222,0.0694 0.34973,0.25825 -0.0744,0.19381 0.0284,0.25825 0.412,0.25825 0.33953,0 0.51109,-0.0867 0.51109,-0.25825 0,-0.16069 0.1626,-0.25825 0.43042,-0.25825 0.23672,0 0.43041,0.0775 0.43041,0.17216 0,0.0947 -0.0851,0.17217 -0.18917,0.17217 -0.22951,0 -0.85044,0.65252 -2.45749,2.58248 -0.67021,0.80488 -3.54471,4.01595 -6.38778,7.13571 -2.84307,3.11977 -5.26972,5.79264 -5.39254,5.93972 -0.19029,0.22786 -0.20964,0.19101 -0.13081,-0.24909 z"
       id="path243"
       transform="scale(0.26458333)" /><path
       style="fill:#eaeaea;fill-opacity:1;stroke:#8fd3f0;stroke-width:0.16658;stroke-opacity:0"
       d="m 363.97896,571.74487 c -1.69474,-1.43842 -2.903,-2.58451 -2.8371,-2.69113 0.066,-0.1068 0.0347,-0.1362 -0.0738,-0.0692 -0.23643,0.14611 -3.21587,-2.43356 -8.60208,-7.44789 -1.51312,-1.40864 -2.10903,-2.07494 -2.10903,-2.35814 0,-0.57402 0.31141,-0.67568 0.53908,-0.17599 0.26762,0.58736 0.56646,0.66359 1.06477,0.27162 l 0.42066,-0.33089 4.29413,4.34336 c 2.36177,2.38885 5.70251,5.73294 7.42386,7.43131 1.72135,1.69837 3.12973,3.14645 3.12973,3.21795 0,0.45879 -0.62341,0.0385 -3.25027,-2.19101 z"
       id="path244"
       transform="scale(0.26458333)" /></g></svg>
